<?xml version="1.0" standalone="no"?>
<!DOCTYPE svg PUBLIC "-//W3C//DTD SVG 20010904//EN"
 "http://www.w3.org/TR/2001/REC-SVG-20010904/DTD/svg10.dtd">
<svg version="1.0" xmlns="http://www.w3.org/2000/svg"
 width="717.000000pt" height="717.000000pt" viewBox="0 0 717.000000 717.000000"
 preserveAspectRatio="xMidYMid meet">
<metadata>
Created by potrace 1.14, written by Peter Selinger 2001-2017
</metadata>
<g transform="translate(0.000000,717.000000) scale(0.100000,-0.100000)"
fill="#000000" stroke="none">
<path d="M1325 7065 c-181 -42 -377 -143 -555 -287 -49 -40 -87 -56 -334 -142
-196 -69 -288 -96 -307 -92 l-28 5 40 -111 c22 -61 42 -115 45 -120 9 -14 31
-10 274 48 355 85 466 85 667 0 133 -57 278 -149 349 -223 99 -102 202 -247
243 -340 151 -344 160 -658 26 -925 -32 -64 -38 -68 -95 -68 -118 0 -340 -59
-470 -125 -173 -87 -369 -258 -477 -416 -263 -383 -331 -912 -179 -1375 37
-111 136 -306 198 -389 197 -266 485 -446 803 -502 121 -21 324 -21 450 1
l100 18 125 -60 c259 -123 740 -287 1033 -352 l57 -13 0 -467 0 -466 -342
-109 c-189 -60 -349 -112 -357 -116 -9 -4 46 -49 169 -136 l183 -130 107 56
c58 31 203 108 323 171 l217 115 -1 85 c0 47 -4 274 -8 505 l-9 420 28 55 c32
63 61 93 110 114 34 14 455 65 463 56 5 -6 -29 -1360 -34 -1364 -2 -1 -129
-25 -282 -52 -154 -27 -283 -52 -289 -55 -6 -4 35 -66 92 -143 l102 -136 70 0
c61 0 101 11 322 86 l253 85 6 472 c4 260 7 606 7 769 0 163 4 307 9 321 11
28 76 46 531 152 157 36 310 73 340 82 38 11 100 16 200 17 l144 1 11 37 c13
48 17 51 100 78 89 29 313 117 429 168 63 28 83 41 70 45 -11 3 -107 31 -214
63 -107 31 -196 58 -198 59 -1 1 44 17 100 35 121 38 220 82 399 180 125 69
130 73 124 99 -4 14 -8 27 -10 29 -2 2 -102 -2 -223 -9 -121 -6 -245 -8 -276
-5 -52 7 -56 9 -50 29 111 361 523 1602 540 1630 33 51 129 119 214 153 l71
27 -3 101 -3 101 -437 3 -438 2 0 -108 0 -108 73 -21 c83 -25 127 -59 127 -99
0 -26 -377 -1191 -390 -1207 -4 -4 -150 340 -326 765 l-319 773 -114 0 -114 0
-184 -545 c-102 -300 -188 -548 -191 -551 -4 -4 -90 37 -191 90 l-185 96 -103
280 c-56 154 -103 292 -103 307 0 37 45 71 124 94 l66 19 0 107 0 108 -600 0
-601 0 3 -106 3 -106 71 -27 c140 -54 199 -114 248 -249 14 -40 26 -74 26 -76
0 -1 -52 12 -116 30 -64 19 -162 43 -218 55 l-101 23 -80 81 c-80 82 -188 167
-278 218 -38 23 -46 32 -42 50 12 54 46 276 65 421 51 398 32 757 -56 1061
-14 50 -57 153 -95 231 -172 351 -359 551 -591 631 -90 31 -241 40 -333 18z
m324 -78 c201 -70 379 -260 537 -576 74 -147 114 -263 143 -416 59 -316 52
-642 -26 -1123 -22 -139 -28 -163 -42 -159 -9 3 -47 17 -86 31 -91 32 -258 66
-329 66 -31 0 -56 3 -56 8 0 4 13 39 29 77 101 241 106 495 16 771 -50 154
-103 257 -180 359 -137 179 -245 270 -432 364 -135 67 -223 93 -344 99 -120 5
-200 -7 -453 -69 -88 -21 -169 -39 -181 -39 -17 0 -25 11 -38 52 -9 29 -15 53
-14 54 1 1 125 45 274 97 l273 96 105 78 c172 130 340 216 480 247 99 22 231
15 324 -17z m157 -2538 c159 -28 292 -184 378 -442 90 -271 109 -694 46 -1019
-46 -239 -145 -450 -257 -549 -86 -75 -239 -111 -316 -74 -61 29 -258 231
-288 295 -93 198 -139 442 -139 739 0 330 49 573 158 785 75 146 183 243 294
265 60 12 58 12 124 0z m1149 -208 c83 -22 172 -47 198 -58 l49 -18 401 -1093
401 -1093 120 3 120 3 239 725 c132 399 241 727 243 729 7 8 76 -34 90 -54 15
-23 544 -1290 551 -1320 5 -21 41 -11 -647 -176 -91 -22 -206 -51 -256 -65
l-91 -26 -7 -60 c-3 -34 -6 -192 -6 -352 0 -160 -3 -489 -7 -731 l-6 -440
-267 -92 -267 -91 -76 102 c-71 95 -74 101 -54 108 12 3 132 25 267 49 135 23
246 43 248 44 4 3 42 1479 37 1483 -7 8 -484 -49 -532 -63 -71 -21 -118 -65
-157 -148 l-35 -72 10 -489 c5 -269 6 -492 2 -496 -16 -14 -562 -300 -573
-300 -21 0 -244 164 -229 169 8 3 151 49 319 102 l305 97 3 511 c2 404 0 512
-10 516 -7 2 -107 29 -223 60 -115 31 -291 83 -390 116 -318 107 -619 239
-544 239 7 0 53 20 104 44 379 179 639 527 737 982 20 95 23 136 23 319 -1
178 -4 225 -23 310 -40 186 -111 367 -195 498 -21 32 -37 60 -37 62 0 8 9 6
165 -34z m1434 -596 c1 -2 -25 -88 -60 -192 -62 -187 -62 -187 -75 -153 -6 19
-51 140 -98 269 -47 128 -86 235 -86 238 0 4 309 -153 319 -162z m387 -153
c-9 -8 -26 10 -26 26 1 15 2 15 15 -2 8 -11 13 -21 11 -24z m1463 -828 c-135
-71 -254 -123 -342 -148 -45 -13 -84 -22 -86 -21 -2 3 55 188 64 205 2 3 103
6 226 6 l223 2 -85 -44z m-309 -319 c84 -25 155 -47 157 -49 2 -2 -53 -26
-124 -54 -186 -73 -253 -96 -259 -89 -4 4 66 237 71 237 1 0 70 -20 155 -45z"/>
</g>
</svg>
