<svg xmlns="http://www.w3.org/2000/svg" width="1020.637" height="433.034" viewBox="0 0 1020.637 433.034">
  <g id="Group_15" data-name="Group 15" transform="translate(-463.652 -291)">
    <g id="Group_1" data-name="Group 1" transform="translate(-70.23 -225)">
      <g id="Wieringen_vlag" transform="translate(535.49 548.174)">
        <path id="path4320" d="M85.938,82.483l28.1-9.769c36.108-30.543,59.731-16.94,76.035,22.545,11.021,32.716.554,70.617-2.479,90.179,51.913,1.134,123.227,40.415,165.294,75.148,6.686,4.617,13.479,5.8,38.844,3.758-14.3,8.188-22.761,12.849-36.365,15.03l23.141,6.763c-34.882,15.737-57.945,17.146-86.779,25.551l-.826,76.651L262.944,397.8l-9.534-12.646,27.474-4.949,1.753-69.266-20.662,2.255c-7.988.689-9.638,5.7-11.571,10.521l.826,48.1-29.753,15.781L206.6,377.065l33.059-10.521V319.2c-125.832-29.7-128.246-93.773-78.515-151.049,15.375-23.677,5.567-46.129,0-57.113-6.5-7.765-9.095-15.531-27.273-23.3-15.133-7.382-27.2-.518-45.114,2.657l-2.822-7.917Z" transform="translate(-85.937 -56.013)" fill="#fff" stroke="#000" stroke-width="2"/>
      </g>
      <g id="Wieringen_vlag-2" data-name="Wieringen_vlag" transform="translate(1247.137 548.174)">
        <path id="path4320-2" data-name="path4320" d="M391.731,82.483l-28.1-9.769C327.523,42.17,303.9,55.773,287.6,95.258c-11.021,32.716-.554,70.617,2.479,90.179-51.913,1.134-123.227,40.415-165.294,75.148-6.686,4.617-13.479,5.8-38.844,3.758,14.3,8.188,22.761,12.849,36.365,15.03l-23.141,6.763c34.882,15.737,57.945,17.146,86.779,25.551l.826,76.651,27.958,9.458,9.534-12.646L196.784,380.2l-1.753-69.266,20.662,2.255c7.988.689,9.638,5.7,11.571,10.521l-.826,48.1,29.753,15.781,14.876-10.521-33.059-10.521V319.2c125.832-29.7,128.246-93.773,78.515-151.049-15.375-23.677-5.567-46.129,0-57.113,6.5-7.765,9.095-15.531,27.273-23.3,15.133-7.382,27.2-.518,45.114,2.657l2.822-7.917Z" transform="translate(-85.937 -56.013)" fill="#fff" stroke="#000" stroke-width="2"/>
      </g>
      <g id="Path_16" data-name="Path 16" transform="translate(1279.073 807.224)">
        <path d="M 185.0633239746094 137.1788024902344 L 143.0187683105469 133.0082855224609 L 63.22048187255859 94.93301391601563 L 63.16498184204102 94.90653991699219 L 63.10665893554688 94.88703918457031 L -13.55795955657959 69.27961730957031 C -12.82113552093506 66.82846832275391 -10.64597034454346 59.80654144287109 -7.698636054992676 52.19045257568359 C -2.918665647506714 39.83883285522461 1.695334315299988 31.5488338470459 5.644569396972656 28.2166862487793 C 9.887333869934082 24.63689231872559 14.27859878540039 20.79748153686523 18.52527618408203 17.08451080322266 C 29.52842330932617 7.464098453521729 40.90618896484375 -2.483813285827637 52.35860061645508 -10.35893058776855 C 58.51968765258789 -14.59554862976074 64.14003753662109 -17.85675430297852 69.54080200195313 -20.32890129089355 C 75.59727478027344 -23.10122489929199 81.20112609863281 -24.80684280395508 86.67253875732422 -25.5432243347168 C 92.27245330810547 -26.29690170288086 98.07209777832031 -26.67904853820801 103.9103622436523 -26.67904853820801 C 117.493896484375 -26.67904853820801 131.7832489013672 -24.62554931640625 146.3815155029297 -20.57554817199707 C 158.0727996826172 -17.3320484161377 169.9862213134766 -12.80840110778809 181.7908325195313 -7.130224704742432 C 192.2966003417969 -2.076842546463013 200.7667694091797 2.973245620727539 206.0224151611328 6.319892883300781 C 209.8324432373047 8.745996475219727 212.5411376953125 10.64583301544189 213.9230346679688 11.64240646362305 L 169.0450134277344 46.82036209106445 L 168.5693359375 47.19321441650391 L 168.6782989501953 47.78768539428711 L 185.0633239746094 137.1788024902344 Z" stroke="none"/>
        <path d="M 103.9095764160156 -25.67908477783203 C 98.11638641357422 -25.67908477783203 92.36189270019531 -25.29993438720703 86.80592346191406 -24.55217742919922 C 81.43373107910156 -23.82914733886719 75.92242431640625 -22.15027618408203 69.95701599121094 -19.41964721679688 C 64.60935974121094 -16.9718017578125 59.0382080078125 -13.73849487304688 52.92523193359375 -9.534957885742188 C 41.52070617675781 -1.692771911621094 30.16517639160156 8.235694885253906 19.18351745605469 17.83728790283203 C 14.93357849121094 21.55313110351563 10.53895568847656 25.3955078125 6.289459228515625 28.98097991943359 C 2.469573974609375 32.20394897460938 -2.043075561523438 40.34969711303711 -6.7607421875 52.53763198852539 C -9.386566162109375 59.32143020629883 -11.3978271484375 65.63473510742188 -12.31852722167969 68.63932800292969 L 63.42344665527344 93.93856811523438 L 63.54011535644531 93.9775390625 L 63.65110778808594 94.03047943115234 L 143.2915954589844 132.0304260253906 L 183.8402404785156 136.0525970458984 L 167.6947021484375 47.96800994873047 L 167.4767608642578 46.77907180786133 L 168.4280700683594 46.03335189819336 L 212.2516326904297 11.68194580078125 C 207.8171539306641 8.564842224121094 196.6797180175781 1.14129638671875 181.3573608398438 -6.228897094726563 C 169.6060180664063 -11.88140106201172 157.7484741210938 -16.38405609130859 146.1141357421875 -19.61180114746094 C 131.6029205322266 -23.63764953613281 117.4035110473633 -25.67899322509766 103.9098892211914 -25.67908477783203 L 103.9095764160156 -25.67908477783203 M 103.9103240966797 -27.67906951904297 C 163.8582153320313 -27.67865753173828 215.5773315429688 11.61628723144531 215.5773315429688 11.61628723144531 L 169.6619262695313 47.60741424560547 L 186.2864227294922 138.3050384521484 L 142.7459869384766 133.9860992431641 L 62.78982543945313 95.83554077148438 L -14.79142761230469 69.92195129394531 C -14.79142761230469 69.92195129394531 -4.9755859375 35.86894226074219 4.99969482421875 27.45238494873047 C 30.83425903320313 5.65472412109375 58.76617431640625 -22.79636383056641 86.53913879394531 -26.53430938720703 C 92.37969970703125 -27.32038116455078 98.18209838867188 -27.67911529541016 103.9103240966797 -27.67906951904297 Z" stroke="none" fill="#707070"/>
      </g>
      <g id="Path_19" data-name="Path 19" transform="translate(601.264 805.359)">
        <path d="M 15.72259521484375 137.1788024902344 L 32.10764312744141 47.78771591186523 L 32.21661376953125 47.19324493408203 L 31.74093818664551 46.82039260864258 L -13.13701915740967 11.64251327514648 C -11.74930095672607 10.64185905456543 -9.024901390075684 8.731125831604004 -5.199297428131104 6.296216011047363 C 0.05879075452685356 2.949569225311279 8.532114028930664 -2.100048542022705 19.03890800476074 -7.151283740997314 C 30.8388500213623 -12.82419586181641 42.74708557128906 -17.34343147277832 54.43290710449219 -20.58345985412598 C 69.02117156982422 -24.62822532653809 83.30096435546875 -26.6790771484375 96.87564086914063 -26.6790771484375 C 102.7138824462891 -26.6790771484375 108.5135269165039 -26.29693031311035 114.113410949707 -25.54325485229492 C 119.584846496582 -24.80684280395508 125.1886749267578 -23.10122489929199 131.2451782226563 -20.32890129089355 C 136.6459350585938 -17.85672569274902 142.2662963867188 -14.59551906585693 148.4274139404297 -10.35890102386475 C 159.8798522949219 -2.483783721923828 171.2576141357422 7.464157581329346 182.2607879638672 17.08456993103027 C 186.5074157714844 20.79754066467285 190.8986511230469 24.63692283630371 195.1413726806641 28.2166862487793 C 199.0906066894531 31.5488338470459 203.7046203613281 39.83883285522461 208.4845886230469 52.19045257568359 C 211.4319152832031 59.80654144287109 213.6070861816406 66.82846832275391 214.3439025878906 69.27961730957031 L 137.6792907714844 94.88703918457031 L 137.6209716796875 94.90653991699219 L 137.5654602050781 94.93301391601563 L 57.76717758178711 133.0082855224609 L 15.72259521484375 137.1788024902344 Z" stroke="none"/>
        <path d="M 96.87559509277344 -25.67908477783203 C 83.40006256103516 -25.67908477783203 69.21968078613281 -23.64308166503906 54.72840881347656 -19.62767791748047 C 43.10505676269531 -16.40692901611328 31.25787353515625 -11.91311645507813 19.51589965820313 -6.27105712890625 C 9.052398681640625 -1.243270874023438 0.6125335693359375 3.784072875976563 -4.625152587890625 7.116165161132813 C -7.62152099609375 9.022384643554688 -9.940261840820313 10.60630035400391 -11.46697998046875 11.68093872070313 L 32.35787963867188 46.03335189819336 L 33.30918884277344 46.77907180786133 L 33.09124755859375 47.96800994873047 L 16.9456787109375 136.0525970458984 L 57.49435424804688 132.0304565429688 L 137.1348114013672 94.03047943115234 L 137.2458190917969 93.9775390625 L 137.3624725341797 93.93856811523438 L 213.1045532226563 68.63929748535156 C 212.1856536865234 65.64010620117188 210.1798553466797 59.34342956542969 207.5572814941406 52.56504058837891 C 202.8357849121094 40.36175918579102 198.3194427490234 32.20654296875 194.4965362548828 28.98097991943359 C 190.2469940185547 25.3955078125 185.8523712158203 21.55313110351563 181.6024322509766 17.83728790283203 C 170.6207733154297 8.235694885253906 159.2652435302734 -1.692771911621094 147.8607177734375 -9.534957885742188 C 141.7477416992188 -13.73849487304688 136.1765899658203 -16.97177124023438 130.8289031982422 -19.41964721679688 C 124.8634948730469 -22.15027618408203 119.3521881103516 -23.82914733886719 113.9799957275391 -24.55217742919922 C 108.4240264892578 -25.29993438720703 102.6692504882813 -25.67908477783203 96.87559509277344 -25.67908477783203 M 96.87559509277344 -27.67906951904297 C 102.6038208007813 -27.67906951904297 108.4062194824219 -27.32038116455078 114.2467803955078 -26.53430938720703 C 142.019775390625 -22.79636383056641 169.9516906738281 5.65472412109375 195.7862548828125 27.45238494873047 C 205.7615356445313 35.86894226074219 215.5773468017578 69.92195129394531 215.5773468017578 69.92195129394531 L 137.99609375 95.83554077148438 L 58.03996276855469 133.9861297607422 L 14.49949645996094 138.3050384521484 L 31.1240234375 47.60741424560547 L -14.79141235351563 11.61628723144531 C -14.79141235351563 11.61628723144531 36.92770385742188 -27.67906951904297 96.87559509277344 -27.67906951904297 Z" stroke="none" fill="#707070"/>
      </g>
      <path id="Path_3" data-name="Path 3" d="M-6.991,4.256s189.31-67.82,374.607-64.475,363.9,64.475,363.9,64.475l-41.474,132.6S540.082,99.685,367.615,87.3,37.159,136.854,37.159,136.854Z" transform="translate(677.345 717.125)"/>
      <path id="Path_17" data-name="Path 17" d="M5.933-.381c9.428-1.581,22.953,27.26,29.043,44.3,4.013,11.228-9.369,24.7-9.369,24.7s-7.2,10.222-10.774,10.222c-4.924,0-10.261-4.43-16.4-11.926-6.573-8.03-9.125-24.87-5.153-33.223C.78,17.934-3.494,1.2,5.933-.381Z" transform="translate(1446.375 699.09)" fill="#fff"/>
      <path id="banner1" d="M1004.007,297.879l-2.153,1.678a34.986,34.986,0,0,1-4.717,3.077c-5.845,3.357-13.433,5.781-21.431,8.485-8.511,2.984-17.227,5.688-24.508,9.883-12.613,6.993-17.945,16.13-16.817,28.811a14.852,14.852,0,0,1-4.307,11,102.336,102.336,0,0,0-10.767,11.841,61.016,61.016,0,0,1-2.564-8.485,25.272,25.272,0,0,1-.205-4.848c.41-4.2,2.871-7.739,6.665-10.35,6.973-4.755,9.639-11.375,12.2-18.368a20.014,20.014,0,0,1,.82-3.357c.82-20.419-19.893-45.781-35.275-56.6l-2.358-1.678.1,2.611a45.863,45.863,0,0,1,0,5.315c-.615,6.247-2.974,13.333-5.435,20.606-2.564,8.019-5.435,16.037-6.05,23.776-1.436,13.426,3.486,22.937,15.279,29.557a15.136,15.136,0,0,1,7.076,9.883,117.639,117.639,0,0,0,3.076,12.028,241.214,241.214,0,0,1-52.4-24.988c7.178-14.639,14.664-31.7,7.178-46.433-6.768-13.613-23.687-20.046-39.274-25.081A1126.353,1126.353,0,0,0,495.8,224.5a1072.613,1072.613,0,0,0-168.58,12.494,983.5,983.5,0,0,0-163.043,39.534c-9.024,2.984-17.945,6.154-26.866,9.417-6.665,2.424-15.381,3.73-17.227,10.816-4.409,16.6-1.128,35.711,6.665,51A215.938,215.938,0,0,1,23.8,383.007a249.206,249.206,0,0,0,57.014,48.764c-6.358,27.692-12.715,55.478-19.073,83.17-.41,1.865-.82,3.73-.205,5.5,1.333,3.823,6.768,5.035,11.28,5.221,13.023.559,101.517-31.142,105.414-36.55,3.384-1.678,6.665-3.17,10.049-4.662a260.48,260.48,0,0,1,78.138-20.606c4.2-.373,8.921-.932,11.792-3.823,3.384-3.45,2.564-8.951,1.128-13.52A82.5,82.5,0,0,0,261.7,416.387a1137.36,1137.36,0,0,1,465.032-.186,90.782,90.782,0,0,0-18.15,30.676c-1.231,3.636-2.256,7.832-.1,11.1,2.461,3.73,7.9,4.755,12.51,5.315a338.694,338.694,0,0,1,104.389,32.541c29.43,14.825,60.4,34.685,93.417,28.438,3.076-.559,6.46-1.772,7.691-4.382a8.55,8.55,0,0,0-.1-5.315c-6.358-27.6-12.613-55.384-18.97-82.983a301.018,301.018,0,0,0,31.378-23.59,308.571,308.571,0,0,0,25.328-23.963,250.975,250.975,0,0,1-39.069-7.832,77.339,77.339,0,0,1,6.87-8.671,21.075,21.075,0,0,1,4-2.984,18.62,18.62,0,0,1,13.125-1.212c8.2,2.238,15.689.28,23.38-2.145l3.486-1.585c18.765-11.562,28.712-41.771,28.917-59.58ZM904.643,347.2c-10.049-5.688-14.151-13.8-13.023-25.361.718-7.273,3.384-15.1,5.845-22.75,2.256-6.993,4.409-13.426,5.332-19.394.41.932.41,2.144.82,3.263a320.692,320.692,0,0,1,4.922,60.979,43.267,43.267,0,0,0,.205,6.34A18.234,18.234,0,0,0,904.643,347.2Zm4.307-49.51c-.718-5.035-1.436-10.163-2.359-15.2a89.044,89.044,0,0,1,8,8.951A18.272,18.272,0,0,1,908.95,297.693Zm.513,3.45a20.635,20.635,0,0,0,5.947-5.315c.41-.653.82-1.212,1.231-1.772a38.466,38.466,0,0,1,4.409,6.9,28.386,28.386,0,0,1-10.767,10.163C910.078,307.856,909.873,304.313,909.462,301.142Zm12.613,3.916c.308-.373.41-.839.82-1.212a61.244,61.244,0,0,1,3.589,7.273c-4.2,6.993-9.126,11.282-15.279,13.24-.205-3.357-.308-6.806-.718-10.07A35.97,35.97,0,0,0,922.075,305.059Zm-10.87,22.191c5.742-1.585,10.87-5.128,15.176-10.536a7.99,7.99,0,0,0,1.538-2.051,21.624,21.624,0,0,1,1.538,7.552c-3.794,6.434-10.459,11.841-18.047,14.825C911.411,333.776,911.308,330.42,911.206,327.25Zm.205,16.5c0-1.305.1-2.424,0-3.823a42.671,42.671,0,0,0,18.458-12.867c-.205.559-4.409,13.986-10.562,18.275a17.33,17.33,0,0,0-6.665,7.739A28.155,28.155,0,0,1,911.411,343.753ZM161.823,497.039C160.8,498.437,157.721,499.183,161.823,497.039Zm71.78-40.746c-27.276,5.035-52.092,18.834-76.087,31.888-25.943,14.079-53.527,28.065-83.675,29.743,17.432-23.5,8.819-56.037,22.354-81.585,1.743-2.984,3.486-6.247,2.564-9.417-1.025-3.263-4.922-5.128-8.306-6.713a157.747,157.747,0,0,1-22.047-12.214c-5.23-3.357-16.407-9.417-18.56-14.825,15.689-2.424,30.045-3.916,44.709-10.35a119.236,119.236,0,0,0,19.586-10.909c3.076-2.145,5.947-4.382,8.819-6.713,1.538-1.4,7.9-5.5,8-7.552a42.388,42.388,0,0,0,.615,10.816c-9.536,4.475-17.022,11.375-25.738,16.876a.427.427,0,0,0,.41.746c9.024-3.45,17.535-8.392,26.866-11a127.412,127.412,0,0,0,5.537,14.639c-14.971,3.45-29.02,9.977-43.273,15.944-.615.186-.205.932.308.746,14.869-4.289,29.943-9.137,45.529-10.536,1.538,3.73,3.179,7.459,4.512,11.282-12.715,3.916-24.815,9.417-36.71,15.1-.41.186-.205.932.308.746,12.613-3.73,25.328-7.179,38.351-9.137a63.385,63.385,0,0,1,1.128,6.34c.205,1.678.308,3.357.41,5.128l-28.507,16.5a.427.427,0,0,0,.41.746l28.815-10.07c.615,3.45,1.538,6.9,3.794,9.79,7.588.093,15.176.373,22.662,1.026l-36.1,17.809c-.41.186-.1.932.308.746l48.2-17.156c8.306,1.026,16.714,2.424,24.815,4.2-18.765,8.951-38.043,17.622-58.244,23.59a.432.432,0,1,0,.205.839c23.892-4.848,46.862-13.333,69.421-21.725,4.717,1.212,9.536,2.611,14.253,4.009A26.513,26.513,0,0,0,233.6,456.293ZM262.212,443.8c.41,1.585,1.025,3.077,1.538,4.662-10.972-5.967-23.277-9.417-35.787-11.375a195.92,195.92,0,0,0-19.586-1.958c-5.947-.28-13.331.559-18.868-.653,5.332-1.678,61.833-17.249,62.654-15.664A234.891,234.891,0,0,1,262.212,443.8Zm231.234-69.37c-122.949,0-232.465,16.876-325.676,49.976l-1.846.653-.308-1.772c-7.9-38.228-21.534-83.076-37.633-123.169l-.615-1.585,18.458-4.382c116.694-26.946,226.825-52.587,347.62-52.587h.308c120.488,0,230.824,25.641,347.415,52.774l18.663,4.382-.615,1.585c-6.358,15.944-11.28,33.287-15.894,50.07-1.23,4.662-2.564,9.137-3.794,13.613-2.051,6.713-4.307,13.613-6.87,20.979-4.614,12.96-9.229,26.2-10.972,38.508l-.205,1.865-1.948-.653C724.68,391.4,614.959,374.429,493.446,374.429Zm250.1,66.76c-6.87,1.678-13.741,3.45-19.791,7.086a195.525,195.525,0,0,1,7.486-21.259c1.025-2.424,2.358-7.739,5.127-8.392,2.564-.746,10.152,2.611,12.92,3.17,8.306,2.145,16.714,4.2,24.918,6.247,4.307,1.026,8.716,2.145,13.023,3.17,3.487.839,8.511,3.077,12.1,2.984a283.73,283.73,0,0,0-54.04,6.34A3.715,3.715,0,0,1,743.548,441.188ZM938.482,392.7A258.737,258.737,0,0,1,895.927,420.4c-3.179,1.678-6.563,3.45-7.486,6.713a9.214,9.214,0,0,0,1.025,5.5,24.3,24.3,0,0,0,1.743,3.17c14.048,25.361,4.614,58.461,22.149,81.958-30.045-2.051-57.526-15.944-83.47-30.023s-51.374-27.226-81.316-32.634c2.974-1.772,7.076-2.89,11.28-3.823,22.662,8.392,45.529,16.97,69.422,21.725.615.093.82-.653.205-.839-20.2-5.967-39.376-14.545-58.142-23.5,6.05-1.585,12.1-2.89,18.253-4.1,1.538-.28,3.179-.653,4.82-.839l50.143,17.809c.41.186.82-.559.308-.746l-38.043-18.648a135.176,135.176,0,0,1,23.79-.28,4.5,4.5,0,0,0,4.2-2.051,12.778,12.778,0,0,0,2.051-5.874l27.071,8.392c.615.186.923-.373.41-.746L837.477,425.99c.1-1.865.1-3.823.205-5.688.205-2.238.615-4.382,1.026-6.527,12.613,1.958,24.815,5.315,37.12,8.951.615.186.82-.559.308-.746-11.587-5.408-23.277-10.816-35.685-14.639a123.5,123.5,0,0,1,4.512-11.562c15.279,1.585,29.943,6.34,44.5,10.443.615.186.923-.559.308-.746-13.843-5.874-27.584-12.121-42.248-15.571a142.534,142.534,0,0,0,5.742-14.545c8.819,2.7,16.92,7.273,25.636,10.536.615.186.923-.373.41-.746-8.2-5.221-15.586-11.748-24.405-16.224a42.786,42.786,0,0,0,.82-12.028C876.341,378.625,907,391.865,938.482,392.7Zm.308-43.45c-.923-10.816,3.691-18.555,14.561-24.708,6.768-3.73,15.381-6.527,23.585-9.231a140.285,140.285,0,0,0,20.2-7.832,28.753,28.753,0,0,1-2.461,2.611,370.524,370.524,0,0,1-50.964,40,56.8,56.8,0,0,0-5.435,4.1A9.772,9.772,0,0,0,938.79,349.254Zm31.686,7.552a25.653,25.653,0,0,1-21.124,2.424,25.761,25.761,0,0,0-10.972-.373c1.538-2.331,4.409-4.475,7.486-6.34,1.128-.653,2.256-1.4,3.487-2.238a43.719,43.719,0,0,0,22.354,5.781A4.277,4.277,0,0,1,970.475,356.806Zm5.742-3.916a41.362,41.362,0,0,1-23.892-4.382c2.871-1.958,5.537-3.916,8.306-5.967,4.717,3.263,10.87,4.848,18.253,4.755,1.025,0,1.743-.093,2.564-.093C979.909,349.161,977.961,351.026,976.218,352.89Zm7.691-8.951c-8.511,1.026-15.484-.093-20.714-3.17,2.974-2.051,5.742-4.289,8.306-6.434,5.435,1.958,10.459,2.984,14.971,2.7h1.436A34.21,34.21,0,0,1,983.909,343.939Zm6.05-10.163c-4.307.746-9.536,0-15.381-1.865,2.564-2.145,5.332-4.382,8.1-6.713a21.22,21.22,0,0,0,8.2,1.305,18.26,18.26,0,0,0,2.256-.093A71.759,71.759,0,0,1,989.958,333.776Zm4.512-10.256a28.817,28.817,0,0,1-9.024-.373c3.794-3.636,8-7.086,11.895-10.723C996.521,315.781,995.6,319.6,994.47,323.52Z" transform="translate(548.103 422.352)" fill="#fff"/>
      <path id="Path_18" data-name="Path 18" d="M21.187-.381C11.76-1.962-1.766,26.878-7.855,43.915c-4.013,11.228,9.369,24.7,9.369,24.7s7.2,10.222,10.774,10.222c4.924,0,10.261-4.43,16.4-11.926,6.573-8.03,9.125-24.87,5.153-33.223C26.34,17.934,30.615,1.2,21.187-.381Z" transform="translate(614.752 702.819)" fill="#fff"/>
      <path id="banner1-2" data-name="banner1" d="M1004.007,297.879l-2.153,1.678a34.986,34.986,0,0,1-4.717,3.077c-5.845,3.357-13.433,5.781-21.431,8.485-8.511,2.984-17.227,5.688-24.508,9.883-12.613,6.993-17.945,16.13-16.817,28.811a14.852,14.852,0,0,1-4.307,11,102.336,102.336,0,0,0-10.767,11.841,61.016,61.016,0,0,1-2.564-8.485,25.272,25.272,0,0,1-.205-4.848c.41-4.2,2.871-7.739,6.665-10.35,6.973-4.755,9.639-11.375,12.2-18.368a20.014,20.014,0,0,1,.82-3.357c.82-20.419-19.893-45.781-35.275-56.6l-2.358-1.678.1,2.611a45.863,45.863,0,0,1,0,5.315c-.615,6.247-2.974,13.333-5.435,20.606-2.564,8.019-5.435,16.037-6.05,23.776-1.436,13.426,3.486,22.937,15.279,29.557a15.136,15.136,0,0,1,7.076,9.883,117.639,117.639,0,0,0,3.076,12.028,241.214,241.214,0,0,1-52.4-24.988c7.178-14.639,14.664-31.7,7.178-46.433-6.768-13.613-23.687-20.046-39.274-25.081A1126.353,1126.353,0,0,0,495.8,224.5a1072.613,1072.613,0,0,0-168.58,12.494,983.5,983.5,0,0,0-163.043,39.534c-9.024,2.984-17.945,6.154-26.866,9.417-6.665,2.424-15.381,3.73-17.227,10.816-4.409,16.6-1.128,35.711,6.665,51A215.938,215.938,0,0,1,23.8,383.007a249.206,249.206,0,0,0,57.014,48.764c-6.358,27.692-12.715,55.478-19.073,83.17-.41,1.865-.82,3.73-.205,5.5,1.333,3.823,6.768,5.035,11.28,5.221,13.023.559,75.758-17.33,106.035-34.972,26.012-12.408,60.495-24.049,87.566-26.846,4.2-.373,8.921-.932,11.792-3.823,3.384-3.45,2.564-8.951,1.128-13.52A82.5,82.5,0,0,0,261.7,416.387a1137.36,1137.36,0,0,1,465.032-.186,90.782,90.782,0,0,0-18.15,30.676c-1.231,3.636-2.256,7.832-.1,11.1,2.461,3.73,7.9,4.755,12.51,5.315a338.694,338.694,0,0,1,104.389,32.541c29.43,14.825,60.4,34.685,93.417,28.438,3.076-.559,6.46-1.772,7.691-4.382a8.55,8.55,0,0,0-.1-5.315c-6.358-27.6-12.613-55.384-18.97-82.983a301.018,301.018,0,0,0,31.378-23.59,308.571,308.571,0,0,0,25.328-23.963,250.975,250.975,0,0,1-39.069-7.832,77.339,77.339,0,0,1,6.87-8.671,21.075,21.075,0,0,1,4-2.984,18.62,18.62,0,0,1,13.125-1.212c8.2,2.238,15.689.28,23.38-2.145l3.486-1.585c18.765-11.562,28.712-41.771,28.917-59.58ZM904.643,347.2c-10.049-5.688-14.151-13.8-13.023-25.361.718-7.273,3.384-15.1,5.845-22.75,2.256-6.993,4.409-13.426,5.332-19.394.41.932.41,2.144.82,3.263a320.692,320.692,0,0,1,4.922,60.979,43.267,43.267,0,0,0,.205,6.34A18.234,18.234,0,0,0,904.643,347.2Zm4.307-49.51c-.718-5.035-1.436-10.163-2.359-15.2a89.044,89.044,0,0,1,8,8.951A18.272,18.272,0,0,1,908.95,297.693Zm.513,3.45a20.635,20.635,0,0,0,5.947-5.315c.41-.653.82-1.212,1.231-1.772a38.466,38.466,0,0,1,4.409,6.9,28.386,28.386,0,0,1-10.767,10.163C910.078,307.856,909.873,304.313,909.462,301.142Zm12.613,3.916c.308-.373.41-.839.82-1.212a61.244,61.244,0,0,1,3.589,7.273c-4.2,6.993-9.126,11.282-15.279,13.24-.205-3.357-.308-6.806-.718-10.07A35.97,35.97,0,0,0,922.075,305.059Zm-10.87,22.191c5.742-1.585,10.87-5.128,15.176-10.536a7.99,7.99,0,0,0,1.538-2.051,21.624,21.624,0,0,1,1.538,7.552c-3.794,6.434-10.459,11.841-18.047,14.825C911.411,333.776,911.308,330.42,911.206,327.25Zm.205,16.5c0-1.305.1-2.424,0-3.823a42.671,42.671,0,0,0,18.458-12.867c-.205.559-4.409,13.986-10.562,18.275a17.33,17.33,0,0,0-6.665,7.739A28.155,28.155,0,0,1,911.411,343.753ZM233.6,456.293c-27.276,5.035-52.092,18.834-76.087,31.888-25.943,14.079-53.527,28.065-83.675,29.743,17.432-23.5,8.819-56.037,22.354-81.585,1.743-2.984,3.486-6.247,2.564-9.417-1.025-3.263-4.922-5.128-8.306-6.713a157.747,157.747,0,0,1-22.047-12.214c-5.23-3.357-16.407-9.417-18.56-14.825,15.689-2.424,30.045-3.916,44.709-10.35a119.236,119.236,0,0,0,19.586-10.909c3.076-2.145,5.947-4.382,8.819-6.713,1.538-1.4,7.9-5.5,8-7.552a42.388,42.388,0,0,0,.615,10.816c-9.536,4.475-17.022,11.375-25.738,16.876a.427.427,0,0,0,.41.746c9.024-3.45,17.535-8.392,26.866-11a127.412,127.412,0,0,0,5.537,14.639c-14.971,3.45-29.02,9.977-43.273,15.944-.615.186-.205.932.308.746,14.869-4.289,29.943-9.137,45.529-10.536,1.538,3.73,3.179,7.459,4.512,11.282-12.715,3.916-24.815,9.417-36.71,15.1-.41.186-.205.932.308.746,12.613-3.73,25.328-7.179,38.351-9.137a63.385,63.385,0,0,1,1.128,6.34c.205,1.678.308,3.357.41,5.128l-28.507,16.5a.427.427,0,0,0,.41.746l28.815-10.07c.615,3.45,1.538,6.9,3.794,9.79,7.588.093,15.176.373,22.662,1.026l-36.1,17.809c-.41.186-.1.932.308.746l48.2-17.156c8.306,1.026,16.714,2.424,24.815,4.2-18.765,8.951-38.043,17.622-58.244,23.59a.432.432,0,1,0,.205.839c23.892-4.848,46.862-13.333,69.421-21.725,4.717,1.212,9.536,2.611,14.253,4.009A26.513,26.513,0,0,0,233.6,456.293ZM262.212,443.8c.41,1.585,1.025,3.077,1.538,4.662-10.972-5.967-23.277-9.417-35.787-11.375a195.92,195.92,0,0,0-19.586-1.958c-5.947-.28-13.331.559-18.868-.653,5.332-1.678,61.833-17.249,62.654-15.664A234.891,234.891,0,0,1,262.212,443.8Zm231.234-69.37c-122.949,0-232.465,16.876-325.676,49.976l-1.846.653-.308-1.772c-7.9-38.228-21.534-83.076-37.633-123.169l-.615-1.585,18.458-4.382c116.694-26.946,226.825-52.587,347.62-52.587h.308c120.488,0,230.824,25.641,347.415,52.774l18.663,4.382-.615,1.585c-6.358,15.944-11.28,33.287-15.894,50.07-1.23,4.662-2.564,9.137-3.794,13.613-2.051,6.713-4.307,13.613-6.87,20.979-4.614,12.96-9.229,26.2-10.972,38.508l-.205,1.865-1.948-.653C724.68,391.4,614.959,374.429,493.446,374.429Zm250.1,66.76c-6.87,1.678-13.741,3.45-19.791,7.086a195.525,195.525,0,0,1,7.486-21.259c1.025-2.424,2.358-7.739,5.127-8.392,2.564-.746,10.152,2.611,12.92,3.17,8.306,2.145,16.714,4.2,24.918,6.247,4.307,1.026,8.716,2.145,13.023,3.17,3.487.839,8.511,3.077,12.1,2.984a283.73,283.73,0,0,0-54.04,6.34A3.715,3.715,0,0,1,743.548,441.188ZM938.482,392.7A258.737,258.737,0,0,1,895.927,420.4c-3.179,1.678-6.563,3.45-7.486,6.713a9.214,9.214,0,0,0,1.025,5.5,24.3,24.3,0,0,0,1.743,3.17c14.048,25.361,4.614,58.461,22.149,81.958-30.045-2.051-57.526-15.944-83.47-30.023s-51.374-27.226-81.316-32.634c2.974-1.772,7.076-2.89,11.28-3.823,22.662,8.392,45.529,16.97,69.422,21.725.615.093.82-.653.205-.839-20.2-5.967-39.376-14.545-58.142-23.5,6.05-1.585,12.1-2.89,18.253-4.1,1.538-.28,3.179-.653,4.82-.839l50.143,17.809c.41.186.82-.559.308-.746l-38.043-18.648a135.176,135.176,0,0,1,23.79-.28,4.5,4.5,0,0,0,4.2-2.051,12.778,12.778,0,0,0,2.051-5.874l27.071,8.392c.615.186.923-.373.41-.746L837.477,425.99c.1-1.865.1-3.823.205-5.688.205-2.238.615-4.382,1.026-6.527,12.613,1.958,24.815,5.315,37.12,8.951.615.186.82-.559.308-.746-11.587-5.408-23.277-10.816-35.685-14.639a123.5,123.5,0,0,1,4.512-11.562c15.279,1.585,29.943,6.34,44.5,10.443.615.186.923-.559.308-.746-13.843-5.874-27.584-12.121-42.248-15.571a142.534,142.534,0,0,0,5.742-14.545c8.819,2.7,16.92,7.273,25.636,10.536.615.186.923-.373.41-.746-8.2-5.221-15.586-11.748-24.405-16.224a42.786,42.786,0,0,0,.82-12.028C876.341,378.625,907,391.865,938.482,392.7Zm.308-43.45c-.923-10.816,3.691-18.555,14.561-24.708,6.768-3.73,15.381-6.527,23.585-9.231a140.285,140.285,0,0,0,20.2-7.832,28.753,28.753,0,0,1-2.461,2.611,370.524,370.524,0,0,1-50.964,40,56.8,56.8,0,0,0-5.435,4.1A9.772,9.772,0,0,0,938.79,349.254Zm31.686,7.552a25.653,25.653,0,0,1-21.124,2.424,25.761,25.761,0,0,0-10.972-.373c1.538-2.331,4.409-4.475,7.486-6.34,1.128-.653,2.256-1.4,3.487-2.238a43.719,43.719,0,0,0,22.354,5.781A4.277,4.277,0,0,1,970.475,356.806Zm5.742-3.916a41.362,41.362,0,0,1-23.892-4.382c2.871-1.958,5.537-3.916,8.306-5.967,4.717,3.263,10.87,4.848,18.253,4.755,1.025,0,1.743-.093,2.564-.093C979.909,349.161,977.961,351.026,976.218,352.89Zm7.691-8.951c-8.511,1.026-15.484-.093-20.714-3.17,2.974-2.051,5.742-4.289,8.306-6.434,5.435,1.958,10.459,2.984,14.971,2.7h1.436A34.21,34.21,0,0,1,983.909,343.939Zm6.05-10.163c-4.307.746-9.536,0-15.381-1.865,2.564-2.145,5.332-4.382,8.1-6.713a21.22,21.22,0,0,0,8.2,1.305,18.26,18.26,0,0,0,2.256-.093A71.759,71.759,0,0,1,989.958,333.776Zm4.512-10.256a28.817,28.817,0,0,1-9.024-.373c3.794-3.636,8-7.086,11.895-10.723C996.521,315.781,995.6,319.6,994.47,323.52Z" transform="translate(548.103 422.352)" fill="#fff" stroke="#000" stroke-width="2"/>
      <path id="banner1-3" data-name="banner1" d="M691.1,301.1l2.153,1.678a34.985,34.985,0,0,0,4.717,3.077c5.845,3.357,13.433,5.781,21.431,8.485,8.511,2.984,17.227,5.688,24.508,9.883,12.613,6.993,17.945,16.13,16.817,28.811a14.852,14.852,0,0,0,4.307,11A102.336,102.336,0,0,1,775.8,375.882a61.025,61.025,0,0,0,2.564-8.485,25.272,25.272,0,0,0,.205-4.848c-.41-4.2-2.871-7.739-6.665-10.35-6.973-4.755-9.639-11.375-12.2-18.368a20.019,20.019,0,0,0-.82-3.357c-.82-20.419,19.893-45.781,35.275-56.6l2.359-1.678-.1,2.611a45.85,45.85,0,0,0,0,5.315c.615,6.247,2.974,13.333,5.435,20.606,2.564,8.019,5.435,16.037,6.05,23.776,1.436,13.426-3.486,22.937-15.279,29.557a15.136,15.136,0,0,0-7.075,9.883,117.671,117.671,0,0,1-3.076,12.028c18.56-6.247-25.123,7.086-12.408,3.45a77.333,77.333,0,0,0-6.87-8.671,21.074,21.074,0,0,0-4-2.984,18.62,18.62,0,0,0-13.125-1.212c-8.2,2.238-15.689.28-23.38-2.145l-3.486-1.585c-18.765-11.562-28.712-41.771-28.917-59.58Zm99.364,49.324c10.049-5.688,14.151-13.8,13.023-25.361-.718-7.273-3.384-15.1-5.845-22.75-2.256-6.993-4.409-13.426-5.332-19.394-.41.932-.41,2.144-.82,3.263a320.7,320.7,0,0,0-4.922,60.979,43.267,43.267,0,0,1-.205,6.34A18.236,18.236,0,0,1,790.464,350.428Zm-4.307-49.51c.718-5.035,1.436-10.163,2.358-15.2a89.036,89.036,0,0,0-8,8.951A18.27,18.27,0,0,0,786.157,300.918Zm-.513,3.45a20.635,20.635,0,0,1-5.948-5.315c-.41-.653-.82-1.212-1.23-1.772a38.47,38.47,0,0,0-4.409,6.9,28.385,28.385,0,0,0,10.767,10.163C785.029,311.081,785.234,307.538,785.645,304.368Zm-12.613,3.916c-.308-.373-.41-.839-.82-1.212a61.244,61.244,0,0,0-3.589,7.273c4.2,6.993,9.126,11.282,15.279,13.24.205-3.357.308-6.806.718-10.07A35.969,35.969,0,0,1,773.032,308.284Zm10.87,22.191c-5.742-1.585-10.87-5.128-15.176-10.536a7.992,7.992,0,0,1-1.538-2.051,21.627,21.627,0,0,0-1.538,7.552c3.794,6.434,10.459,11.841,18.047,14.825C783.7,337,783.8,333.645,783.9,330.475Zm-.205,16.5c0-1.305-.1-2.424,0-3.823a42.672,42.672,0,0,1-18.458-12.867c.205.559,4.409,13.986,10.562,18.275a17.33,17.33,0,0,1,6.665,7.739A28.157,28.157,0,0,0,783.7,346.978Zm-27.379,5.5c.923-10.816-3.692-18.555-14.561-24.708-6.768-3.73-15.381-6.527-23.585-9.231a140.288,140.288,0,0,1-20.2-7.832,28.761,28.761,0,0,0,2.461,2.611,370.528,370.528,0,0,0,50.964,40,56.788,56.788,0,0,1,5.435,4.1A9.771,9.771,0,0,1,756.317,352.479Zm-31.686,7.552a25.653,25.653,0,0,0,21.124,2.424,25.761,25.761,0,0,1,10.972-.373c-1.538-2.331-4.409-4.475-7.486-6.34-1.128-.653-2.256-1.4-3.486-2.238a43.719,43.719,0,0,1-22.354,5.781A4.279,4.279,0,0,0,724.632,360.032Zm-5.742-3.916a41.362,41.362,0,0,0,23.892-4.382c-2.871-1.958-5.537-3.916-8.306-5.967-4.717,3.263-10.87,4.848-18.253,4.755-1.025,0-1.743-.093-2.563-.093C715.2,352.386,717.146,354.251,718.889,356.116Zm-7.691-8.951c8.511,1.026,15.484-.093,20.714-3.17-2.974-2.051-5.742-4.289-8.306-6.434-5.435,1.958-10.459,2.984-14.971,2.7H707.2A34.216,34.216,0,0,0,711.2,347.165ZM705.148,337c4.307.746,9.536,0,15.381-1.865-2.564-2.145-5.332-4.382-8.1-6.713a21.219,21.219,0,0,1-8.2,1.305,18.261,18.261,0,0,1-2.256-.093A71.785,71.785,0,0,0,705.148,337Zm-4.512-10.256a28.817,28.817,0,0,0,9.024-.373c-3.794-3.636-8-7.086-11.9-10.723C698.586,319.006,699.509,322.829,700.636,326.745Z" transform="translate(-154.8 421.924)" fill="#fff" stroke="#000" stroke-width="2"/>
    </g>
    <g id="Group_7" data-name="Group 7" transform="translate(663.755 425.022)">
      <g id="Group_6" data-name="Group 6">
        <path id="Path_36" data-name="Path 36" d="M59.061,144.819a.559.559,0,0,1-.683-.257q-11.329-16.719-23.116-33.236-3.1,20.072-5.705,40.124a.56.56,0,0,1-.495.538q-2.321.586-4.64,1.185a.56.56,0,0,1-.692-.234q-20.955-26.5-43.273-52.3c-1.822-2.082-4.646-2.943-8.738-3.838l-.474-1.633Q-14.81,91.118-.794,87.407l.435,1.644c-1.6,1.147-2.172,2.337-1.81,3.689A7.936,7.936,0,0,0-.563,95.417q9.732,11.9,19.194,23.932,3.148-19.071,6.767-38.155c.035-.316.221-.464.537-.54q1.838-.442,3.677-.879a.593.593,0,0,1,.723.24Q42.24,95.386,53.708,110.968q2.937-15,6.168-30A7.969,7.969,0,0,0,60.1,77.86c-.289-1.37-1.338-2.172-3.275-2.474l-.355-1.663Q70.6,70.7,84.793,68.027l.315,1.671c-3.223,2.644-5.342,4.687-6.02,7.367q-8.172,33.076-14.851,66.193a.558.558,0,0,1-.51.522Q61.393,144.295,59.061,144.819Z" fill="#fff"/>
        <path id="Path_37" data-name="Path 37" d="M105.852,135.323l-.3-1.673c2.785-1.724,4.357-4.538,3.819-7.592l-9.222-52.195c-.538-3.052-3.086-5.143-6.477-5.749l-.3-1.673Q107.409,63.9,121.5,61.683l.263,1.679c-3,1.687-4.717,4.5-4.221,7.559q4.229,26.163,8.458,52.324c.5,3.061,2.9,5.2,6.1,5.914l.264,1.68Q119.088,132.924,105.852,135.323Z" fill="#fff"/>
        <path id="Path_38" data-name="Path 38" d="M143.083,129.207l-.248-1.682c2.836-1.631,4.5-4.392,4.061-7.461q-3.748-26.237-7.5-52.471c-.437-3.069-2.913-5.243-6.277-5.961l-.248-1.682q31.343-4.619,62.846-7.594.917,9.708,1.834,19.415l-1.789.171a7.744,7.744,0,0,0-7.609-3.77q-15.252,1.557-30.473,3.505.813,6.348,1.625,12.7,7.294-.933,14.6-1.776a7.764,7.764,0,0,0,6.552-5.768l1.782-.194q1.313,12.182,2.626,24.361l-1.746.19A7.559,7.559,0,0,0,175.568,97q-7.213.833-14.418,1.755.806,6.3,1.612,12.6,15.527-1.986,31.089-3.552a7.582,7.582,0,0,0,6.516-5.157l1.743-.164,1.806,19.417Q173.432,124.736,143.083,129.207Z" fill="#fff"/>
        <path id="Path_39" data-name="Path 39" d="M255.68,118.266a.553.553,0,0,1-.625-.37q-7.686-12.447-15.687-24.789-3.253.2-6.5.411l1.152,17.463c.205,3.093,2.4,5.452,5.5,6.463l.1,1.7q-13.377.824-26.738,1.96l-.144-1.694c2.925-1.454,4.75-4.106,4.5-7.2l-4.26-52.832c-.248-3.09-2.581-5.412-5.89-6.336l-.144-1.694q19.26-1.638,38.556-2.663c18.271-.935,25.377,10.153,25.716,21.522.324,10.4-4.859,17.746-14.341,20.873q5.784,8.748,11.406,17.552c1.425,2.649,5.592,5.709,8.566,7.126q.025.85.049,1.7Q266.288,117.764,255.68,118.266Zm-1.312-47.694c-.215-4.693-3.209-7.467-9.144-7.15q-7.146.387-14.29.857.5,7.635,1.007,15.268,7.053-.465,14.108-.846C252,78.383,254.578,75.171,254.368,70.572Z" fill="#fff"/>
        <path id="Path_40" data-name="Path 40" d="M285.589,117.24l-.036-1.7c3.01-1.264,5-3.795,4.948-6.9l-.89-53c-.051-3.1-2.231-5.566-5.472-6.7l-.036-1.7q14.215-.3,28.433-.27,0,.851,0,1.7c-3.218,1.194-5.35,3.7-5.342,6.8l.117,53c.009,3.1,2.044,5.594,5.078,6.8q0,.85,0,1.7Q298.985,116.956,285.589,117.24Z" fill="#fff"/>
        <path id="Path_41" data-name="Path 41" d="M386.983,120.589Q367,97.835,345.371,75.812q-.5,16.595-.995,33.188c-.091,3.1,1.864,5.656,4.857,6.96q-.03.849-.059,1.7-13.391-.46-26.788-.608.011-.849.019-1.7c3.049-1.166,5.119-3.632,5.168-6.732q.406-26.5.815-53c.049-3.1-2.051-5.634-5.253-6.87q.009-.849.018-1.7,9.871.108,19.74.377a1.009,1.009,0,0,1,.743.321q17.37,17.892,33.7,36.265.762-13.279,1.523-26.558c.18-3.1-1.812-5.715-4.961-7.084l.09-1.7q14.2.751,28.387,1.836l-.129,1.7c-3.3.952-5.614,3.294-5.835,6.386q-2.244,31.172-4.489,62.343Q389.454,120.756,386.983,120.589Z" fill="#fff"/>
        <path id="Path_42" data-name="Path 42" d="M423.32,118.806a37.7,37.7,0,0,1-12.911-14.461,34.4,34.4,0,0,1-3.778-19.188A30.4,30.4,0,0,1,413.58,67.88,36.7,36.7,0,0,1,429.5,56.608a43.426,43.426,0,0,1,20.778-2.486C461.928,55.479,471.2,60.349,478,68.679a8.487,8.487,0,0,0,5.781,3.963,3.522,3.522,0,0,0,1.173.071l.968,1.458q-1.881,1.086-3.755,2.177-6.619,3.13-13.163,6.333c-.209-.028-.3-.141-.377-.353a33.479,33.479,0,0,0-7.986-9.013c-3.021-2.3-7.133-3.715-12.093-4.292a25.993,25.993,0,0,0-11.655,1.114,19.13,19.13,0,0,0-8.6,6.149,19.347,19.347,0,0,0-3.983,10.46,21.949,21.949,0,0,0,1.774,11.631,19.783,19.783,0,0,0,6.9,8.454,23.109,23.109,0,0,0,10.715,3.912c7.33.854,13.068.381,17.272-1.59q.552-4.213,1.106-8.428-4.368-.573-8.738-1.113a8.5,8.5,0,0,0-4.336.479,6.906,6.906,0,0,0-3.113,2.552q-.871-.1-1.744-.2.945-8.145,1.889-16.292a.484.484,0,0,1,.578-.436q16.906,1.968,33.767,4.424a.483.483,0,0,1,.446.57q-1.893,12.963-3.788,25.926c-3.346,3.757-8.151,6.4-14.409,7.976a57.866,57.866,0,0,1-20.664,1.037A40.932,40.932,0,0,1,423.32,118.806Z" fill="#fff"/>
        <path id="Path_43" data-name="Path 43" d="M486.141,130.65q.132-.84.262-1.68c3.194-.716,5.6-2.859,6.094-5.92q4.2-26.167,8.4-52.333c.493-3.061-1.228-5.872-4.229-7.555q.13-.84.262-1.68,31.313,4.885,62.41,11.415l-4.008,19.085q-.883-.185-1.766-.369a7.779,7.779,0,0,0-6.177-5.863Q532.309,82.7,517.17,80.043l-2.214,12.608q7.256,1.273,14.5,2.638a7.783,7.783,0,0,0,7.987-3.561l1.765.345-4.719,24.043-1.728-.337a7.579,7.579,0,0,0-5.99-6.239q-7.155-1.349-14.321-2.607l-2.2,12.509q15.442,2.712,30.827,5.845a7.616,7.616,0,0,0,7.78-2.986l1.72.362q-2.017,9.54-4.036,19.079Q516.46,135.379,486.141,130.65Z" fill="#fff"/>
        <path id="Path_44" data-name="Path 44" d="M618.943,160.58q-15.084-26.417-31.893-52.434l-7.764,32.281c-.724,3.015.68,5.922,3.364,7.815l-.405,1.652q-13.105-3.214-26.265-6.114l.366-1.66c3.24-.515,5.782-2.5,6.465-5.527q5.817-25.855,11.636-51.711c.682-3.023-.867-5.937-3.768-7.806l.366-1.66q9.7,2.136,19.365,4.434a1.02,1.02,0,0,1,.667.467q13.458,21.094,25.82,42.461l6.93-25.683c.809-2.992-.621-5.97-3.447-7.961l.435-1.644q13.857,3.674,27.647,7.679l-.474,1.633c-3.454.247-6.217,2.06-7.067,5.041q-8.585,30.049-17.17,60.1Q621.348,161.257,618.943,160.58Z" fill="#fff"/>
      </g>
    </g>
    <g id="Group_30" data-name="Group 30" transform="translate(504.483 177.4)">
      <g id="Group_28" data-name="Group 28" transform="translate(101.517 114.6)">
        <path id="Path_67" data-name="Path 67" d="M136.994,258.634q-.429-1.2-.861-2.394c3.757-3.26,5.453-7.812,3.92-12.192q-13.137-37.407-26.276-74.818c-1.531-4.374-5.974-6.787-11.4-6.744l-.863-2.392q29.422-10.593,59.272-19.439c29.29-8.593,45.049-2.2,48.738,12.682,2.156,8.564-.726,17.294-7.336,24.624,14.392-1.674,28.378,4.716,31.871,19.568,4.81,20.579-8.44,33.55-32,40.2Q169.267,247.021,136.994,258.634ZM183.32,167.31c-1.535-5.468-5.756-8.185-12.957-6.081q-13.663,4-27.244,8.383,2.893,8.969,5.784,17.943,13.339-4.3,26.761-8.235C182.721,177.258,184.858,172.789,183.32,167.31Zm24.192,35.556c-1.692-6.364-7.875-7.812-13.893-6.124q-19.111,5.351-38.057,11.459,2.959,9.185,5.921,18.371,18.587-5.993,37.341-11.244C204.713,213.677,209.279,209.518,207.512,202.866Z" transform="translate(-101.517 -95.8)" fill="#fff" stroke="#000" stroke-width="2"/>
        <path id="Path_68" data-name="Path 68" d="M193.692,239.429q-.283-1.241-.563-2.481c4.088-2.769,6.3-7.075,5.309-11.608q-8.485-38.729-16.967-77.46c-.99-4.531-5.076-7.472-10.422-8.1l-.563-2.481q48.638-11.05,97.939-17.586,1.92,14.461,3.839,28.923-1.385.183-2.767.371a12.039,12.039,0,0,0-12.031-5.106q-23.633,3.452-47.135,7.971,1.807,9.4,3.617,18.807,11.178-2.15,22.389-4.055a12.065,12.065,0,0,0,9.724-9.179q1.372-.219,2.747-.432,2.829,18.108,5.66,36.216-1.327.208-2.651.417a11.514,11.514,0,0,0-11.847-5.632q-10.978,1.865-21.927,3.97,1.8,9.33,3.589,18.659,23.4-4.5,46.958-7.882a11.608,11.608,0,0,0,9.619-8.126q1.322-.175,2.645-.347,1.881,14.464,3.765,28.932Q238.891,229.168,193.692,239.429Z" transform="translate(-43.082 -110.268)" fill="#fff" stroke="#000" stroke-width="2"/>
        <path id="Path_69" data-name="Path 69" d="M272.908,220.1a96.438,96.438,0,0,1-21.875-7.993,10.607,10.607,0,0,0-7.184-1.775,10.868,10.868,0,0,0-5.067,1.94q-1.164-.615-2.328-1.228,8.044-13.475,16.576-26.819c.286-.329.443-.344.6-.36a.45.45,0,0,1,.5.249,78.592,78.592,0,0,0,21.475,12.2,52.008,52.008,0,0,0,21.639,3.458c4.964-.288,8.486-1.358,10.744-3.113s3.266-3.743,3.168-5.985a8.723,8.723,0,0,0-1.962-5.156c-1.169-1.443-3.918-2.817-8.106-4.092-4.179-1.123-10.421-1.973-18.892-2.416-12.619-.593-22.721-2.8-30.545-6.826-7.8-3.87-12.377-11.167-13.581-21.875a25.41,25.41,0,0,1,3.8-16.971,35.862,35.862,0,0,1,14.58-12.419,60.492,60.492,0,0,1,22.35-5.715c13.467-.951,25.777,1.129,36.681,6.114a12.8,12.8,0,0,0,7.26,2,14.68,14.68,0,0,0,6.14-1.666l2.374,1.291q-8.762,11.646-17.137,23.431l-.641.325-.5-.131a58.892,58.892,0,0,0-35.565-8.765c-4.121.3-7.358,1.315-9.536,2.994-2.167,1.832-3.157,3.72-2.978,5.808.244,2.834,2.734,5.015,7.273,6.6s11.617,2.549,21.233,3.024c13.541.848,24.194,3.759,32.041,8.468,7.7,4.72,11.643,12.75,11.837,23.965.126,7.033-1.644,12.894-5.383,17.771a36.6,36.6,0,0,1-14.374,11.226A55.07,55.07,0,0,1,298.4,222.18,87.736,87.736,0,0,1,272.908,220.1Z" transform="translate(12.811 -114.284)" fill="#fff" stroke="#000" stroke-width="2"/>
        <path id="Path_70" data-name="Path 70" d="M303.031,172.508q-.075-22.594-.15-45.184c-.013-4.637-3.369-8.374-8.433-10.114q-.014-1.272-.028-2.544,22.3-.247,44.606.421-.039,1.272-.076,2.542c-5.095,1.646-8.523,5.318-8.623,9.953q-.466,21.017-.933,42.033c-.357,18.271,7.378,27.478,23.193,28.184,15.657.739,24.207-7.723,25.524-25.951q1.458-20.97,2.917-41.942c.325-4.624-2.752-8.6-7.675-10.7q.078-1.269.157-2.538,22.27,1.374,44.492,3.665l-.261,2.531c-5.207,1.269-8.9,4.683-9.332,9.3q-2.142,22.489-4.286,44.979c-2.712,26.418-21.9,46.045-52.329,44.584C320.913,220.354,303.316,198.764,303.031,172.508Z" transform="translate(61.925 -114.6)" fill="#fff" stroke="#000" stroke-width="2"/>
        <path id="Path_71" data-name="Path 71" d="M385.136,217.171a57.679,57.679,0,0,1-17.612-22.032,50.38,50.38,0,0,1-4.639-27.639,47.131,47.131,0,0,1,10.986-25.847A55.317,55.317,0,0,1,398,124.851a61.423,61.423,0,0,1,31.064-2.494,64.025,64.025,0,0,1,23.913,9.164,54.376,54.376,0,0,1,17.087,17.026,13.868,13.868,0,0,0,4.328,5.209,10.63,10.63,0,0,0,4.736,2.416l.646.142q.5,1.186,1,2.37c-16.611,6.477-8.551,3.3-25.215,10.4l-.347.081c-.32-.063-.451-.242-.713-.6-5.178-13.09-15.035-21.1-29.253-23.486a32,32,0,0,0-16.947,1.38,26.172,26.172,0,0,0-12.294,9.236,31.8,31.8,0,0,0-6.041,15.17,32.518,32.518,0,0,0,1.616,16.088,27.427,27.427,0,0,0,8.667,12.462,30.741,30.741,0,0,0,14.789,6.456c13.987,2.353,25.21-.94,34-10.02.369-.231.556-.345.866-.283l.281.209q9.343,9.892,18.316,19.956-.995.851-1.984,1.7l-.913-.2a12.858,12.858,0,0,0-4.766-.126,13.085,13.085,0,0,0-5.867,2.876,63.222,63.222,0,0,1-20.843,8.165,61.438,61.438,0,0,1-22.9.445A56.262,56.262,0,0,1,385.136,217.171Z" transform="translate(119.655 -108.819)" fill="#fff" stroke="#000" stroke-width="2"/>
        <path id="Path_72" data-name="Path 72" d="M491.273,250.981q.382-1.214.761-2.427c4.951-.327,9.048-2.93,10.476-7.345q4.176-12.96,8.353-25.917-22.339-7.2-44.916-13.352-3.58,13.137-7.158,26.272c-1.217,4.478.783,8.893,4.74,11.869q-.344,1.225-.687,2.448-19.585-5.5-39.334-10.177.291-1.236.586-2.475c4.892-.685,8.778-3.576,9.885-8.082q9.438-38.51,18.872-77.02c1.107-4.5-1.275-8.944-5.8-11.861q.294-1.239.586-2.475,21.849,5.173,43.527,11.261-.344,1.225-.689,2.449c-5.387.353-9.626,3.081-10.84,7.555q-3.9,14.292-7.788,28.583,23.065,6.284,45.9,13.646,4.544-14.1,9.089-28.195c1.428-4.411-.645-9.018-4.975-12.26q.38-1.211.761-2.425,21.527,6.753,42.835,14.424-.432,1.194-.863,2.392c-5.424-.043-9.866,2.37-11.4,6.744q-13.137,37.41-26.274,74.818c-1.533,4.38.163,8.932,3.92,12.192l-.863,2.394Q510.732,257.082,491.273,250.981Z" transform="translate(171.297 -101.182)" fill="#fff" stroke="#000" stroke-width="2"/>
      </g>
    </g>
  </g>
</svg>
