<svg xmlns="http://www.w3.org/2000/svg" width="1040.844" height="424.575" viewBox="0 0 1040.844 424.575">
  <g id="Group_12" data-name="Group 12" transform="translate(-453.458 -298.453)">
    <g id="Group_1" data-name="Group 1" transform="translate(-70.23 -225)">
      <g id="Wieringen_vlag" transform="translate(535.49 548.174)">
        <path id="path4320" d="M85.938,82.483l28.1-9.769c36.108-30.543,59.731-16.94,76.035,22.545,11.021,32.716.554,70.617-2.479,90.179,51.913,1.134,123.227,40.415,165.294,75.148,6.686,4.617,13.479,5.8,38.844,3.758-14.3,8.188-22.761,12.849-36.365,15.03l23.141,6.763c-34.882,15.737-57.945,17.146-86.779,25.551l-.826,76.651L262.944,397.8l-9.534-12.646,27.474-4.949,1.753-69.266-20.662,2.255c-7.988.689-9.638,5.7-11.571,10.521l.826,48.1-29.753,15.781L206.6,377.065l33.059-10.521V319.2c-125.832-29.7-128.246-93.773-78.515-151.049,15.375-23.677,5.567-46.129,0-57.113-6.5-7.765-9.095-15.531-27.273-23.3-15.133-7.382-27.2-.518-45.114,2.657l-2.822-7.917Z" transform="translate(-85.937 -56.013)"/>
      </g>
      <g id="Wieringen_vlag-2" data-name="Wieringen_vlag" transform="translate(1247.137 548.174)">
        <path id="path4320-2" data-name="path4320" d="M391.731,82.483l-28.1-9.769C327.523,42.17,303.9,55.773,287.6,95.258c-11.021,32.716-.554,70.617,2.479,90.179-51.913,1.134-123.227,40.415-165.294,75.148-6.686,4.617-13.479,5.8-38.844,3.758,14.3,8.188,22.761,12.849,36.365,15.03l-23.141,6.763c34.882,15.737,57.945,17.146,86.779,25.551l.826,76.651,27.958,9.458,9.534-12.646L196.784,380.2l-1.753-69.266,20.662,2.255c7.988.689,9.638,5.7,11.571,10.521l-.826,48.1,29.753,15.781,14.876-10.521-33.059-10.521V319.2c125.832-29.7,128.246-93.773,78.515-151.049-15.375-23.677-5.567-46.129,0-57.113,6.5-7.765,9.095-15.531,27.273-23.3,15.133-7.382,27.2-.518,45.114,2.657l2.822-7.917Z" transform="translate(-85.937 -56.013)"/>
      </g>
      <path id="Path_60" data-name="Path 60" d="M28.28,83.006c-9.192,1.542-13.6-13.793-24.055-33.968C4.169,48.885.152,33.828,0,33.4A57.949,57.949,0,0,1,11.182,8.93S16.383,0,19.956,0c4.924,0,8.975,3.98,15.109,11.475,6.573,8.031,6.167,26.39,4.663,35.578C33.809,68,37.708,81.425,28.28,83.006Z" transform="matrix(-0.545, -0.839, 0.839, -0.545, 1494.829, 798.151)" fill="#fff"/>
      <path id="Path_59" data-name="Path 59" d="M21.592-3.137C12.4-4.679,7.988,10.656-2.463,30.831c-.056.153-4.073,15.21-4.225,15.636A57.949,57.949,0,0,0,4.494,70.939s5.2,8.93,8.774,8.93c4.924,0,8.975-3.98,15.109-11.475C34.95,60.363,34.544,42,33.039,32.815,27.121,11.867,31.019-1.556,21.592-3.137Z" transform="matrix(0.545, -0.839, 0.839, 0.545, 530.052, 752.042)" fill="#fff"/>
      <g id="Path_16" data-name="Path 16" transform="translate(1279.073 807.224)" fill="#fff">
        <path d="M 185.6748809814453 137.7419281005859 L 142.8823699951172 133.4972076416016 L 63.00515747070313 95.38427734375 L 62.97739410400391 95.37104034423828 L 62.94824600219727 95.36130523681641 L -14.17568111419678 69.6004638671875 C -13.61234569549561 67.70286560058594 -11.33547210693359 60.2037353515625 -8.167607307434082 52.01692199707031 C -6.026283264160156 46.48303985595703 -3.903312683105469 41.72344970703125 -1.857665657997131 37.87030410766602 C 0.6806872487068176 33.08906936645508 3.096334218978882 29.71253967285156 5.322157859802246 27.83453941345215 C 9.561540603637695 24.25759887695313 13.95112800598145 20.41965675354004 18.19615745544434 16.70809936523438 C 29.21006965637207 7.078304290771484 40.59895324707031 -2.879371881484985 52.0753059387207 -10.77093124389648 C 58.26045227050781 -15.02407741546631 63.90539169311523 -18.29922485351563 69.33268737792969 -20.78354835510254 C 75.43471527099609 -23.57669639587402 81.08480834960938 -25.29569625854492 86.60586547851563 -26.03875350952148 C 92.22777557373047 -26.79540061950684 98.04986572265625 -27.17904853820801 103.9103622436523 -27.17904853820801 C 117.5390701293945 -27.17904853820801 131.8733978271484 -25.11943054199219 146.5151824951172 -21.05737113952637 C 158.2349548339844 -17.80595970153809 170.1763305664063 -13.27178382873535 182.007568359375 -7.580813407897949 C 192.5354461669922 -2.516783714294434 201.02392578125 2.544216156005859 206.2909851074219 5.898128032684326 C 210.6833343505859 8.695040702819824 213.6205596923828 10.79778861999512 214.7527770996094 11.62731647491455 L 169.3534545898438 47.21389389038086 L 169.1156311035156 47.40030288696289 L 169.1701354980469 47.69754028320313 L 185.6748809814453 137.7419281005859 Z" stroke="none"/>
        <path d="M 103.9089508056641 -26.67905426025391 C 98.07147979736328 -26.67905426025391 92.27233123779297 -26.29689788818359 86.67253875732422 -25.54322052001953 C 81.20109558105469 -24.80683898925781 75.59727478027344 -23.10122680664063 69.54080200195313 -20.32890319824219 C 64.1400146484375 -17.85672760009766 58.5196533203125 -14.59552001953125 52.35856628417969 -10.35893249511719 C 40.9061279296875 -2.483810424804688 29.52836608886719 7.464126586914063 18.52519226074219 17.08454132080078 C 14.27853393554688 20.79750823974609 9.887298583984375 24.63689422607422 5.644577026367188 28.21669006347656 C 1.6953125 31.54883575439453 -2.918701171875 39.83883285522461 -7.698638916015625 52.19045257568359 C -10.64599609375 59.80654144287109 -12.8211669921875 66.82847595214844 -13.5579833984375 69.27961730957031 L 63.10665893554688 94.88703918457031 L 63.16497802734375 94.90653991699219 L 63.22047424316406 94.93301391601563 L 143.0187683105469 133.0082550048828 L 185.0633239746094 137.1788024902344 L 168.6782836914063 47.78768539428711 L 168.5693054199219 47.19321441650391 L 169.0449829101563 46.82036209106445 L 213.9230041503906 11.64241027832031 C 212.5411224365234 10.64584350585938 209.8324432373047 8.74603271484375 206.0223999023438 6.319953918457031 C 200.7667694091797 2.973335266113281 192.2966003417969 -2.076698303222656 181.7908325195313 -7.130081176757813 C 169.9862213134766 -12.8082275390625 158.0727996826172 -17.33187103271484 146.3815155029297 -20.57540130615234 C 131.7832489013672 -24.62540435791016 117.493896484375 -26.67896270751953 103.909538269043 -26.67905426025391 L 103.9089508056641 -26.67905426025391 M 103.9103775024414 -27.67905426025391 C 163.8582611083984 -27.67865753173828 215.5773010253906 11.61627197265625 215.5773010253906 11.61627197265625 L 169.6618957519531 47.60739135742188 L 186.2864227294922 138.3050384521484 L 142.7459869384766 133.9860992431641 L 62.78984069824219 95.83554077148438 L -14.79142761230469 69.92195129394531 C -14.79142761230469 69.92195129394531 -4.975570678710938 35.86894989013672 4.99969482421875 27.452392578125 C 30.83424377441406 5.654716491699219 58.76615905761719 -22.79637145996094 86.53915405273438 -26.53427886962891 C 92.37972259521484 -27.32036590576172 98.18215942382813 -27.67910003662109 103.9103775024414 -27.67905426025391 Z" stroke="none" fill="#707070"/>
      </g>
      <g id="Path_19" data-name="Path 19" transform="translate(601.264 805.359)" fill="#fff">
        <path d="M 15.1110315322876 137.7419281005859 L 31.61581993103027 47.69757080078125 L 31.67032051086426 47.40033340454102 L 31.43249702453613 47.21392059326172 L -13.96681499481201 11.62737560272217 C -12.83240604400635 10.79631900787354 -9.88660717010498 8.687561988830566 -5.486414909362793 5.886304378509521 C -0.2181210070848465 2.532363176345825 8.271908760070801 -2.528401374816895 18.80029106140137 -7.591342449188232 C 30.62923240661621 -13.27969551086426 42.56802749633789 -17.81166648864746 54.28505706787109 -21.06131362915039 C 68.92185211181641 -25.12078285217285 83.25138092041016 -27.1790771484375 96.87564086914063 -27.1790771484375 C 102.7361145019531 -27.1790771484375 108.5581741333008 -26.79543113708496 114.1800842285156 -26.03878402709961 C 119.7011413574219 -25.29569625854492 125.3512649536133 -23.57669639587402 131.4532623291016 -20.78354835510254 C 136.8805847167969 -18.29922485351563 142.5255584716797 -15.02404880523682 148.7107086181641 -10.77090167999268 C 160.1870880126953 -2.879313230514526 171.5759735107422 7.078363418579102 182.5899047851563 16.70815658569336 C 186.8349151611328 20.41971588134766 191.2244415283203 24.25759887695313 195.4637908935547 27.83453941345215 C 197.6896209716797 29.71253967285156 200.1052551269531 33.08906936645508 202.6436157226563 37.87030410766602 C 204.6892547607422 41.72344970703125 206.8122253417969 46.48303985595703 208.9535522460938 52.01692199707031 C 212.1214141845703 60.2037353515625 214.3983001708984 67.70286560058594 214.9616241455078 69.6004638671875 L 137.8377075195313 95.36130523681641 L 137.8085479736328 95.37104034423828 L 137.7807922363281 95.38427734375 L 57.90357208251953 133.4972076416016 L 15.1110315322876 137.7419281005859 Z" stroke="none"/>
        <path d="M 96.87561798095703 -26.67908477783203 C 83.30096435546875 -26.67908477783203 69.02117919921875 -24.62822723388672 54.43287658691406 -20.58345794677734 C 42.74708557128906 -17.34346008300781 30.83882141113281 -12.82419586181641 19.03887939453125 -7.151283264160156 C 8.532119750976563 -2.100074768066406 0.0587921142578125 2.949569702148438 -5.199295043945313 6.296188354492188 C -9.02490234375 8.731094360351563 -11.74929809570313 10.64183044433594 -13.13702392578125 11.64248657226563 L 31.74093627929688 46.82039260864258 L 32.21661376953125 47.19324493408203 L 32.10765075683594 47.78771591186523 L 15.72259521484375 137.1788024902344 L 57.76718139648438 133.0082702636719 L 137.5654602050781 94.93301391601563 L 137.6209716796875 94.90653991699219 L 137.6792907714844 94.88703918457031 L 214.3439025878906 69.27961730957031 C 213.6070861816406 66.82847595214844 211.4319152832031 59.80654144287109 208.4845886230469 52.19045257568359 C 203.7046203613281 39.83883285522461 199.0906066894531 31.54883575439453 195.1413726806641 28.21669006347656 C 190.8986206054688 24.63689422607422 186.5073852539063 20.79750823974609 182.2606964111328 17.08451080322266 C 171.2575531005859 7.464126586914063 159.8797607421875 -2.483810424804688 148.4273529052734 -10.35893249511719 C 142.2662658691406 -14.59555053710938 136.6459045410156 -17.85675811767578 131.2451477050781 -20.32893371582031 C 125.1886749267578 -23.10122680664063 119.5848236083984 -24.80683898925781 114.113410949707 -25.54325103759766 C 108.5136108398438 -26.29692840576172 102.713996887207 -26.67908477783203 96.87561798095703 -26.67908477783203 M 96.87562561035156 -27.67908477783203 C 102.6038436889648 -27.67908477783203 108.4062271118164 -27.32039642333984 114.2467880249023 -26.53430938720703 C 142.0197601318359 -22.79637145996094 169.9516754150391 5.654716491699219 195.7862243652344 27.452392578125 C 205.7615203857422 35.86894989013672 215.5773468017578 69.92195129394531 215.5773468017578 69.92195129394531 L 137.9961090087891 95.83554077148438 L 58.03996276855469 133.9861297607422 L 14.49949645996094 138.3050384521484 L 31.1240234375 47.607421875 L -14.79141235351563 11.61627197265625 C -14.79141235351563 11.61627197265625 36.92771911621094 -27.67908477783203 96.87562561035156 -27.67908477783203 Z" stroke="none" fill="#707070"/>
      </g>
      <path id="Path_3" data-name="Path 3" d="M-6.991,4.256s189.31-67.82,374.607-64.475,363.9,64.475,363.9,64.475l-41.474,132.6S540.082,99.685,367.615,87.3,37.159,136.854,37.159,136.854Z" transform="translate(677.345 717.125)" fill="#fff"/>
      <path id="Path_17" data-name="Path 17" d="M5.933-.381c9.428-1.581,22.953,27.26,29.043,44.3,4.013,11.228-9.369,24.7-9.369,24.7s-7.2,10.222-10.774,10.222c-4.924,0-10.261-4.43-16.4-11.926-6.573-8.03-9.125-24.87-5.153-33.223C.78,17.934-3.494,1.2,5.933-.381Z" transform="translate(1446.375 699.09)" fill="#fff"/>
      <path id="banner1" d="M1004.007,297.879l-2.153,1.678a34.986,34.986,0,0,1-4.717,3.077c-5.845,3.357-13.433,5.781-21.431,8.485-8.511,2.984-17.227,5.688-24.508,9.883-12.613,6.993-17.945,16.13-16.817,28.811a14.852,14.852,0,0,1-4.307,11,102.336,102.336,0,0,0-10.767,11.841,61.016,61.016,0,0,1-2.564-8.485,25.272,25.272,0,0,1-.205-4.848c.41-4.2,2.871-7.739,6.665-10.35,6.973-4.755,9.639-11.375,12.2-18.368a20.014,20.014,0,0,1,.82-3.357c.82-20.419-19.893-45.781-35.275-56.6l-2.358-1.678.1,2.611a45.863,45.863,0,0,1,0,5.315c-.615,6.247-2.974,13.333-5.435,20.606-2.564,8.019-5.435,16.037-6.05,23.776-1.436,13.426,3.486,22.937,15.279,29.557a15.136,15.136,0,0,1,7.076,9.883,117.639,117.639,0,0,0,3.076,12.028,241.214,241.214,0,0,1-52.4-24.988c7.178-14.639,14.664-31.7,7.178-46.433-6.768-13.613-23.687-20.046-39.274-25.081A1126.353,1126.353,0,0,0,495.8,224.5a1072.613,1072.613,0,0,0-168.58,12.494,983.5,983.5,0,0,0-163.043,39.534c-9.024,2.984-17.945,6.154-26.866,9.417-6.665,2.424-15.381,3.73-17.227,10.816-4.409,16.6-1.128,35.711,6.665,51A215.938,215.938,0,0,1,23.8,383.007a249.206,249.206,0,0,0,57.014,48.764c-6.358,27.692-12.715,55.478-19.073,83.17-.41,1.865-.82,3.73-.205,5.5,1.333,3.823,6.768,5.035,11.28,5.221,13.023.559,101.517-31.142,105.414-36.55,3.384-1.678,6.665-3.17,10.049-4.662a260.48,260.48,0,0,1,78.138-20.606c4.2-.373,8.921-.932,11.792-3.823,3.384-3.45,2.564-8.951,1.128-13.52A82.5,82.5,0,0,0,261.7,416.387a1137.36,1137.36,0,0,1,465.032-.186,90.782,90.782,0,0,0-18.15,30.676c-1.231,3.636-2.256,7.832-.1,11.1,2.461,3.73,7.9,4.755,12.51,5.315a338.694,338.694,0,0,1,104.389,32.541c29.43,14.825,60.4,34.685,93.417,28.438,3.076-.559,6.46-1.772,7.691-4.382a8.55,8.55,0,0,0-.1-5.315c-6.358-27.6-12.613-55.384-18.97-82.983a301.018,301.018,0,0,0,31.378-23.59,308.571,308.571,0,0,0,25.328-23.963,250.975,250.975,0,0,1-39.069-7.832,77.339,77.339,0,0,1,6.87-8.671,21.075,21.075,0,0,1,4-2.984,18.62,18.62,0,0,1,13.125-1.212c8.2,2.238,15.689.28,23.38-2.145l3.486-1.585c18.765-11.562,28.712-41.771,28.917-59.58ZM904.643,347.2c-10.049-5.688-14.151-13.8-13.023-25.361.718-7.273,3.384-15.1,5.845-22.75,2.256-6.993,4.409-13.426,5.332-19.394.41.932.41,2.144.82,3.263a320.692,320.692,0,0,1,4.922,60.979,43.267,43.267,0,0,0,.205,6.34A18.234,18.234,0,0,0,904.643,347.2Zm4.307-49.51c-.718-5.035-1.436-10.163-2.359-15.2a89.044,89.044,0,0,1,8,8.951A18.272,18.272,0,0,1,908.95,297.693Zm.513,3.45a20.635,20.635,0,0,0,5.947-5.315c.41-.653.82-1.212,1.231-1.772a38.466,38.466,0,0,1,4.409,6.9,28.386,28.386,0,0,1-10.767,10.163C910.078,307.856,909.873,304.313,909.462,301.142Zm12.613,3.916c.308-.373.41-.839.82-1.212a61.244,61.244,0,0,1,3.589,7.273c-4.2,6.993-9.126,11.282-15.279,13.24-.205-3.357-.308-6.806-.718-10.07A35.97,35.97,0,0,0,922.075,305.059Zm-10.87,22.191c5.742-1.585,10.87-5.128,15.176-10.536a7.99,7.99,0,0,0,1.538-2.051,21.624,21.624,0,0,1,1.538,7.552c-3.794,6.434-10.459,11.841-18.047,14.825C911.411,333.776,911.308,330.42,911.206,327.25Zm.205,16.5c0-1.305.1-2.424,0-3.823a42.671,42.671,0,0,0,18.458-12.867c-.205.559-4.409,13.986-10.562,18.275a17.33,17.33,0,0,0-6.665,7.739A28.155,28.155,0,0,1,911.411,343.753ZM161.823,497.039C160.8,498.437,157.721,499.183,161.823,497.039Zm71.78-40.746c-27.276,5.035-52.092,18.834-76.087,31.888-25.943,14.079-53.527,28.065-83.675,29.743,17.432-23.5,8.819-56.037,22.354-81.585,1.743-2.984,3.486-6.247,2.564-9.417-1.025-3.263-4.922-5.128-8.306-6.713a157.747,157.747,0,0,1-22.047-12.214c-5.23-3.357-16.407-9.417-18.56-14.825,15.689-2.424,30.045-3.916,44.709-10.35a119.236,119.236,0,0,0,19.586-10.909c3.076-2.145,5.947-4.382,8.819-6.713,1.538-1.4,7.9-5.5,8-7.552a42.388,42.388,0,0,0,.615,10.816c-9.536,4.475-17.022,11.375-25.738,16.876a.427.427,0,0,0,.41.746c9.024-3.45,17.535-8.392,26.866-11a127.412,127.412,0,0,0,5.537,14.639c-14.971,3.45-29.02,9.977-43.273,15.944-.615.186-.205.932.308.746,14.869-4.289,29.943-9.137,45.529-10.536,1.538,3.73,3.179,7.459,4.512,11.282-12.715,3.916-24.815,9.417-36.71,15.1-.41.186-.205.932.308.746,12.613-3.73,25.328-7.179,38.351-9.137a63.385,63.385,0,0,1,1.128,6.34c.205,1.678.308,3.357.41,5.128l-28.507,16.5a.427.427,0,0,0,.41.746l28.815-10.07c.615,3.45,1.538,6.9,3.794,9.79,7.588.093,15.176.373,22.662,1.026l-36.1,17.809c-.41.186-.1.932.308.746l48.2-17.156c8.306,1.026,16.714,2.424,24.815,4.2-18.765,8.951-38.043,17.622-58.244,23.59a.432.432,0,1,0,.205.839c23.892-4.848,46.862-13.333,69.421-21.725,4.717,1.212,9.536,2.611,14.253,4.009A26.513,26.513,0,0,0,233.6,456.293ZM262.212,443.8c.41,1.585,1.025,3.077,1.538,4.662-10.972-5.967-23.277-9.417-35.787-11.375a195.92,195.92,0,0,0-19.586-1.958c-5.947-.28-13.331.559-18.868-.653,5.332-1.678,61.833-17.249,62.654-15.664A234.891,234.891,0,0,1,262.212,443.8Zm231.234-69.37c-122.949,0-232.465,16.876-325.676,49.976l-1.846.653-.308-1.772c-7.9-38.228-21.534-83.076-37.633-123.169l-.615-1.585,18.458-4.382c116.694-26.946,226.825-52.587,347.62-52.587h.308c120.488,0,230.824,25.641,347.415,52.774l18.663,4.382-.615,1.585c-6.358,15.944-11.28,33.287-15.894,50.07-1.23,4.662-2.564,9.137-3.794,13.613-2.051,6.713-4.307,13.613-6.87,20.979-4.614,12.96-9.229,26.2-10.972,38.508l-.205,1.865-1.948-.653C724.68,391.4,614.959,374.429,493.446,374.429Zm250.1,66.76c-6.87,1.678-13.741,3.45-19.791,7.086a195.525,195.525,0,0,1,7.486-21.259c1.025-2.424,2.358-7.739,5.127-8.392,2.564-.746,10.152,2.611,12.92,3.17,8.306,2.145,16.714,4.2,24.918,6.247,4.307,1.026,8.716,2.145,13.023,3.17,3.487.839,8.511,3.077,12.1,2.984a283.73,283.73,0,0,0-54.04,6.34A3.715,3.715,0,0,1,743.548,441.188ZM938.482,392.7A258.737,258.737,0,0,1,895.927,420.4c-3.179,1.678-6.563,3.45-7.486,6.713a9.214,9.214,0,0,0,1.025,5.5,24.3,24.3,0,0,0,1.743,3.17c14.048,25.361,4.614,58.461,22.149,81.958-30.045-2.051-57.526-15.944-83.47-30.023s-51.374-27.226-81.316-32.634c2.974-1.772,7.076-2.89,11.28-3.823,22.662,8.392,45.529,16.97,69.422,21.725.615.093.82-.653.205-.839-20.2-5.967-39.376-14.545-58.142-23.5,6.05-1.585,12.1-2.89,18.253-4.1,1.538-.28,3.179-.653,4.82-.839l50.143,17.809c.41.186.82-.559.308-.746l-38.043-18.648a135.176,135.176,0,0,1,23.79-.28,4.5,4.5,0,0,0,4.2-2.051,12.778,12.778,0,0,0,2.051-5.874l27.071,8.392c.615.186.923-.373.41-.746L837.477,425.99c.1-1.865.1-3.823.205-5.688.205-2.238.615-4.382,1.026-6.527,12.613,1.958,24.815,5.315,37.12,8.951.615.186.82-.559.308-.746-11.587-5.408-23.277-10.816-35.685-14.639a123.5,123.5,0,0,1,4.512-11.562c15.279,1.585,29.943,6.34,44.5,10.443.615.186.923-.559.308-.746-13.843-5.874-27.584-12.121-42.248-15.571a142.534,142.534,0,0,0,5.742-14.545c8.819,2.7,16.92,7.273,25.636,10.536.615.186.923-.373.41-.746-8.2-5.221-15.586-11.748-24.405-16.224a42.786,42.786,0,0,0,.82-12.028C876.341,378.625,907,391.865,938.482,392.7Zm.308-43.45c-.923-10.816,3.691-18.555,14.561-24.708,6.768-3.73,15.381-6.527,23.585-9.231a140.285,140.285,0,0,0,20.2-7.832,28.753,28.753,0,0,1-2.461,2.611,370.524,370.524,0,0,1-50.964,40,56.8,56.8,0,0,0-5.435,4.1A9.772,9.772,0,0,0,938.79,349.254Zm31.686,7.552a25.653,25.653,0,0,1-21.124,2.424,25.761,25.761,0,0,0-10.972-.373c1.538-2.331,4.409-4.475,7.486-6.34,1.128-.653,2.256-1.4,3.487-2.238a43.719,43.719,0,0,0,22.354,5.781A4.277,4.277,0,0,1,970.475,356.806Zm5.742-3.916a41.362,41.362,0,0,1-23.892-4.382c2.871-1.958,5.537-3.916,8.306-5.967,4.717,3.263,10.87,4.848,18.253,4.755,1.025,0,1.743-.093,2.564-.093C979.909,349.161,977.961,351.026,976.218,352.89Zm7.691-8.951c-8.511,1.026-15.484-.093-20.714-3.17,2.974-2.051,5.742-4.289,8.306-6.434,5.435,1.958,10.459,2.984,14.971,2.7h1.436A34.21,34.21,0,0,1,983.909,343.939Zm6.05-10.163c-4.307.746-9.536,0-15.381-1.865,2.564-2.145,5.332-4.382,8.1-6.713a21.22,21.22,0,0,0,8.2,1.305,18.26,18.26,0,0,0,2.256-.093A71.759,71.759,0,0,1,989.958,333.776Zm4.512-10.256a28.817,28.817,0,0,1-9.024-.373c3.794-3.636,8-7.086,11.895-10.723C996.521,315.781,995.6,319.6,994.47,323.52Z" transform="translate(548.103 422.352)"/>
      <path id="Path_18" data-name="Path 18" d="M21.187-.381C11.76-1.962-1.766,26.878-7.855,43.915c-4.013,11.228,9.369,24.7,9.369,24.7s7.2,10.222,10.774,10.222c4.924,0,10.261-4.43,16.4-11.926,6.573-8.03,9.125-24.87,5.153-33.223C26.34,17.934,30.615,1.2,21.187-.381Z" transform="translate(614.752 702.819)" fill="#fff"/>
      <path id="banner1-2" data-name="banner1" d="M1004.007,297.879l-2.153,1.678a34.986,34.986,0,0,1-4.717,3.077c-5.845,3.357-13.433,5.781-21.431,8.485-8.511,2.984-17.227,5.688-24.508,9.883-12.613,6.993-17.945,16.13-16.817,28.811a14.852,14.852,0,0,1-4.307,11,102.336,102.336,0,0,0-10.767,11.841,61.016,61.016,0,0,1-2.564-8.485,25.272,25.272,0,0,1-.205-4.848c.41-4.2,2.871-7.739,6.665-10.35,6.973-4.755,9.639-11.375,12.2-18.368a20.014,20.014,0,0,1,.82-3.357c.82-20.419-19.893-45.781-35.275-56.6l-2.358-1.678.1,2.611a45.863,45.863,0,0,1,0,5.315c-.615,6.247-2.974,13.333-5.435,20.606-2.564,8.019-5.435,16.037-6.05,23.776-1.436,13.426,3.486,22.937,15.279,29.557a15.136,15.136,0,0,1,7.076,9.883,117.639,117.639,0,0,0,3.076,12.028,241.214,241.214,0,0,1-52.4-24.988c7.178-14.639,14.664-31.7,7.178-46.433-6.768-13.613-23.687-20.046-39.274-25.081A1126.353,1126.353,0,0,0,495.8,224.5a1072.613,1072.613,0,0,0-168.58,12.494,983.5,983.5,0,0,0-163.043,39.534c-9.024,2.984-17.945,6.154-26.866,9.417-6.665,2.424-15.381,3.73-17.227,10.816-4.409,16.6-1.128,35.711,6.665,51A215.938,215.938,0,0,1,23.8,383.007a249.206,249.206,0,0,0,57.014,48.764c-6.358,27.692-12.715,55.478-19.073,83.17-.41,1.865-.82,3.73-.205,5.5,1.333,3.823,6.768,5.035,11.28,5.221,13.023.559,75.758-17.33,106.035-34.972,26.012-12.408,60.495-24.049,87.566-26.846,4.2-.373,8.921-.932,11.792-3.823,3.384-3.45,2.564-8.951,1.128-13.52A82.5,82.5,0,0,0,261.7,416.387a1137.36,1137.36,0,0,1,465.032-.186,90.782,90.782,0,0,0-18.15,30.676c-1.231,3.636-2.256,7.832-.1,11.1,2.461,3.73,7.9,4.755,12.51,5.315a338.694,338.694,0,0,1,104.389,32.541c29.43,14.825,60.4,34.685,93.417,28.438,3.076-.559,6.46-1.772,7.691-4.382a8.55,8.55,0,0,0-.1-5.315c-6.358-27.6-12.613-55.384-18.97-82.983a301.018,301.018,0,0,0,31.378-23.59,308.571,308.571,0,0,0,25.328-23.963,250.975,250.975,0,0,1-39.069-7.832,77.339,77.339,0,0,1,6.87-8.671,21.075,21.075,0,0,1,4-2.984,18.62,18.62,0,0,1,13.125-1.212c8.2,2.238,15.689.28,23.38-2.145l3.486-1.585c18.765-11.562,28.712-41.771,28.917-59.58ZM904.643,347.2c-10.049-5.688-14.151-13.8-13.023-25.361.718-7.273,3.384-15.1,5.845-22.75,2.256-6.993,4.409-13.426,5.332-19.394.41.932.41,2.144.82,3.263a320.692,320.692,0,0,1,4.922,60.979,43.267,43.267,0,0,0,.205,6.34A18.234,18.234,0,0,0,904.643,347.2Zm4.307-49.51c-.718-5.035-1.436-10.163-2.359-15.2a89.044,89.044,0,0,1,8,8.951A18.272,18.272,0,0,1,908.95,297.693Zm.513,3.45a20.635,20.635,0,0,0,5.947-5.315c.41-.653.82-1.212,1.231-1.772a38.466,38.466,0,0,1,4.409,6.9,28.386,28.386,0,0,1-10.767,10.163C910.078,307.856,909.873,304.313,909.462,301.142Zm12.613,3.916c.308-.373.41-.839.82-1.212a61.244,61.244,0,0,1,3.589,7.273c-4.2,6.993-9.126,11.282-15.279,13.24-.205-3.357-.308-6.806-.718-10.07A35.97,35.97,0,0,0,922.075,305.059Zm-10.87,22.191c5.742-1.585,10.87-5.128,15.176-10.536a7.99,7.99,0,0,0,1.538-2.051,21.624,21.624,0,0,1,1.538,7.552c-3.794,6.434-10.459,11.841-18.047,14.825C911.411,333.776,911.308,330.42,911.206,327.25Zm.205,16.5c0-1.305.1-2.424,0-3.823a42.671,42.671,0,0,0,18.458-12.867c-.205.559-4.409,13.986-10.562,18.275a17.33,17.33,0,0,0-6.665,7.739A28.155,28.155,0,0,1,911.411,343.753ZM233.6,456.293c-27.276,5.035-52.092,18.834-76.087,31.888-25.943,14.079-53.527,28.065-83.675,29.743,17.432-23.5,8.819-56.037,22.354-81.585,1.743-2.984,3.486-6.247,2.564-9.417-1.025-3.263-4.922-5.128-8.306-6.713a157.747,157.747,0,0,1-22.047-12.214c-5.23-3.357-16.407-9.417-18.56-14.825,15.689-2.424,30.045-3.916,44.709-10.35a119.236,119.236,0,0,0,19.586-10.909c3.076-2.145,5.947-4.382,8.819-6.713,1.538-1.4,7.9-5.5,8-7.552a42.388,42.388,0,0,0,.615,10.816c-9.536,4.475-17.022,11.375-25.738,16.876a.427.427,0,0,0,.41.746c9.024-3.45,17.535-8.392,26.866-11a127.412,127.412,0,0,0,5.537,14.639c-14.971,3.45-29.02,9.977-43.273,15.944-.615.186-.205.932.308.746,14.869-4.289,29.943-9.137,45.529-10.536,1.538,3.73,3.179,7.459,4.512,11.282-12.715,3.916-24.815,9.417-36.71,15.1-.41.186-.205.932.308.746,12.613-3.73,25.328-7.179,38.351-9.137a63.385,63.385,0,0,1,1.128,6.34c.205,1.678.308,3.357.41,5.128l-28.507,16.5a.427.427,0,0,0,.41.746l28.815-10.07c.615,3.45,1.538,6.9,3.794,9.79,7.588.093,15.176.373,22.662,1.026l-36.1,17.809c-.41.186-.1.932.308.746l48.2-17.156c8.306,1.026,16.714,2.424,24.815,4.2-18.765,8.951-38.043,17.622-58.244,23.59a.432.432,0,1,0,.205.839c23.892-4.848,46.862-13.333,69.421-21.725,4.717,1.212,9.536,2.611,14.253,4.009A26.513,26.513,0,0,0,233.6,456.293ZM262.212,443.8c.41,1.585,1.025,3.077,1.538,4.662-10.972-5.967-23.277-9.417-35.787-11.375a195.92,195.92,0,0,0-19.586-1.958c-5.947-.28-13.331.559-18.868-.653,5.332-1.678,61.833-17.249,62.654-15.664A234.891,234.891,0,0,1,262.212,443.8Zm231.234-69.37c-122.949,0-232.465,16.876-325.676,49.976l-1.846.653-.308-1.772c-7.9-38.228-21.534-83.076-37.633-123.169l-.615-1.585,18.458-4.382c116.694-26.946,226.825-52.587,347.62-52.587h.308c120.488,0,230.824,25.641,347.415,52.774l18.663,4.382-.615,1.585c-6.358,15.944-11.28,33.287-15.894,50.07-1.23,4.662-2.564,9.137-3.794,13.613-2.051,6.713-4.307,13.613-6.87,20.979-4.614,12.96-9.229,26.2-10.972,38.508l-.205,1.865-1.948-.653C724.68,391.4,614.959,374.429,493.446,374.429Zm250.1,66.76c-6.87,1.678-13.741,3.45-19.791,7.086a195.525,195.525,0,0,1,7.486-21.259c1.025-2.424,2.358-7.739,5.127-8.392,2.564-.746,10.152,2.611,12.92,3.17,8.306,2.145,16.714,4.2,24.918,6.247,4.307,1.026,8.716,2.145,13.023,3.17,3.487.839,8.511,3.077,12.1,2.984a283.73,283.73,0,0,0-54.04,6.34A3.715,3.715,0,0,1,743.548,441.188ZM938.482,392.7A258.737,258.737,0,0,1,895.927,420.4c-3.179,1.678-6.563,3.45-7.486,6.713a9.214,9.214,0,0,0,1.025,5.5,24.3,24.3,0,0,0,1.743,3.17c14.048,25.361,4.614,58.461,22.149,81.958-30.045-2.051-57.526-15.944-83.47-30.023s-51.374-27.226-81.316-32.634c2.974-1.772,7.076-2.89,11.28-3.823,22.662,8.392,45.529,16.97,69.422,21.725.615.093.82-.653.205-.839-20.2-5.967-39.376-14.545-58.142-23.5,6.05-1.585,12.1-2.89,18.253-4.1,1.538-.28,3.179-.653,4.82-.839l50.143,17.809c.41.186.82-.559.308-.746l-38.043-18.648a135.176,135.176,0,0,1,23.79-.28,4.5,4.5,0,0,0,4.2-2.051,12.778,12.778,0,0,0,2.051-5.874l27.071,8.392c.615.186.923-.373.41-.746L837.477,425.99c.1-1.865.1-3.823.205-5.688.205-2.238.615-4.382,1.026-6.527,12.613,1.958,24.815,5.315,37.12,8.951.615.186.82-.559.308-.746-11.587-5.408-23.277-10.816-35.685-14.639a123.5,123.5,0,0,1,4.512-11.562c15.279,1.585,29.943,6.34,44.5,10.443.615.186.923-.559.308-.746-13.843-5.874-27.584-12.121-42.248-15.571a142.534,142.534,0,0,0,5.742-14.545c8.819,2.7,16.92,7.273,25.636,10.536.615.186.923-.373.41-.746-8.2-5.221-15.586-11.748-24.405-16.224a42.786,42.786,0,0,0,.82-12.028C876.341,378.625,907,391.865,938.482,392.7Zm.308-43.45c-.923-10.816,3.691-18.555,14.561-24.708,6.768-3.73,15.381-6.527,23.585-9.231a140.285,140.285,0,0,0,20.2-7.832,28.753,28.753,0,0,1-2.461,2.611,370.524,370.524,0,0,1-50.964,40,56.8,56.8,0,0,0-5.435,4.1A9.772,9.772,0,0,0,938.79,349.254Zm31.686,7.552a25.653,25.653,0,0,1-21.124,2.424,25.761,25.761,0,0,0-10.972-.373c1.538-2.331,4.409-4.475,7.486-6.34,1.128-.653,2.256-1.4,3.487-2.238a43.719,43.719,0,0,0,22.354,5.781A4.277,4.277,0,0,1,970.475,356.806Zm5.742-3.916a41.362,41.362,0,0,1-23.892-4.382c2.871-1.958,5.537-3.916,8.306-5.967,4.717,3.263,10.87,4.848,18.253,4.755,1.025,0,1.743-.093,2.564-.093C979.909,349.161,977.961,351.026,976.218,352.89Zm7.691-8.951c-8.511,1.026-15.484-.093-20.714-3.17,2.974-2.051,5.742-4.289,8.306-6.434,5.435,1.958,10.459,2.984,14.971,2.7h1.436A34.21,34.21,0,0,1,983.909,343.939Zm6.05-10.163c-4.307.746-9.536,0-15.381-1.865,2.564-2.145,5.332-4.382,8.1-6.713a21.22,21.22,0,0,0,8.2,1.305,18.26,18.26,0,0,0,2.256-.093A71.759,71.759,0,0,1,989.958,333.776Zm4.512-10.256a28.817,28.817,0,0,1-9.024-.373c3.794-3.636,8-7.086,11.895-10.723C996.521,315.781,995.6,319.6,994.47,323.52Z" transform="translate(548.103 422.352)"/>
      <path id="banner1-3" data-name="banner1" d="M691.1,301.1l2.153,1.678a34.985,34.985,0,0,0,4.717,3.077c5.845,3.357,13.433,5.781,21.431,8.485,8.511,2.984,17.227,5.688,24.508,9.883,12.613,6.993,17.945,16.13,16.817,28.811a14.852,14.852,0,0,0,4.307,11A102.336,102.336,0,0,1,775.8,375.882a61.025,61.025,0,0,0,2.564-8.485,25.272,25.272,0,0,0,.205-4.848c-.41-4.2-2.871-7.739-6.665-10.35-6.973-4.755-9.639-11.375-12.2-18.368a20.019,20.019,0,0,0-.82-3.357c-.82-20.419,19.893-45.781,35.275-56.6l2.359-1.678-.1,2.611a45.85,45.85,0,0,0,0,5.315c.615,6.247,2.974,13.333,5.435,20.606,2.564,8.019,5.435,16.037,6.05,23.776,1.436,13.426-3.486,22.937-15.279,29.557a15.136,15.136,0,0,0-7.075,9.883,117.671,117.671,0,0,1-3.076,12.028c18.56-6.247-25.123,7.086-12.408,3.45a77.333,77.333,0,0,0-6.87-8.671,21.074,21.074,0,0,0-4-2.984,18.62,18.62,0,0,0-13.125-1.212c-8.2,2.238-15.689.28-23.38-2.145l-3.486-1.585c-18.765-11.562-28.712-41.771-28.917-59.58Zm99.364,49.324c10.049-5.688,14.151-13.8,13.023-25.361-.718-7.273-3.384-15.1-5.845-22.75-2.256-6.993-4.409-13.426-5.332-19.394-.41.932-.41,2.144-.82,3.263a320.7,320.7,0,0,0-4.922,60.979,43.267,43.267,0,0,1-.205,6.34A18.236,18.236,0,0,1,790.464,350.428Zm-4.307-49.51c.718-5.035,1.436-10.163,2.358-15.2a89.036,89.036,0,0,0-8,8.951A18.27,18.27,0,0,0,786.157,300.918Zm-.513,3.45a20.635,20.635,0,0,1-5.948-5.315c-.41-.653-.82-1.212-1.23-1.772a38.47,38.47,0,0,0-4.409,6.9,28.385,28.385,0,0,0,10.767,10.163C785.029,311.081,785.234,307.538,785.645,304.368Zm-12.613,3.916c-.308-.373-.41-.839-.82-1.212a61.244,61.244,0,0,0-3.589,7.273c4.2,6.993,9.126,11.282,15.279,13.24.205-3.357.308-6.806.718-10.07A35.969,35.969,0,0,1,773.032,308.284Zm10.87,22.191c-5.742-1.585-10.87-5.128-15.176-10.536a7.992,7.992,0,0,1-1.538-2.051,21.627,21.627,0,0,0-1.538,7.552c3.794,6.434,10.459,11.841,18.047,14.825C783.7,337,783.8,333.645,783.9,330.475Zm-.205,16.5c0-1.305-.1-2.424,0-3.823a42.672,42.672,0,0,1-18.458-12.867c.205.559,4.409,13.986,10.562,18.275a17.33,17.33,0,0,1,6.665,7.739A28.157,28.157,0,0,0,783.7,346.978Zm-27.379,5.5c.923-10.816-3.692-18.555-14.561-24.708-6.768-3.73-15.381-6.527-23.585-9.231a140.288,140.288,0,0,1-20.2-7.832,28.761,28.761,0,0,0,2.461,2.611,370.528,370.528,0,0,0,50.964,40,56.788,56.788,0,0,1,5.435,4.1A9.771,9.771,0,0,1,756.317,352.479Zm-31.686,7.552a25.653,25.653,0,0,0,21.124,2.424,25.761,25.761,0,0,1,10.972-.373c-1.538-2.331-4.409-4.475-7.486-6.34-1.128-.653-2.256-1.4-3.486-2.238a43.719,43.719,0,0,1-22.354,5.781A4.279,4.279,0,0,0,724.632,360.032Zm-5.742-3.916a41.362,41.362,0,0,0,23.892-4.382c-2.871-1.958-5.537-3.916-8.306-5.967-4.717,3.263-10.87,4.848-18.253,4.755-1.025,0-1.743-.093-2.563-.093C715.2,352.386,717.146,354.251,718.889,356.116Zm-7.691-8.951c8.511,1.026,15.484-.093,20.714-3.17-2.974-2.051-5.742-4.289-8.306-6.434-5.435,1.958-10.459,2.984-14.971,2.7H707.2A34.216,34.216,0,0,0,711.2,347.165ZM705.148,337c4.307.746,9.536,0,15.381-1.865-2.564-2.145-5.332-4.382-8.1-6.713a21.219,21.219,0,0,1-8.2,1.305,18.261,18.261,0,0,1-2.256-.093A71.785,71.785,0,0,0,705.148,337Zm-4.512-10.256a28.817,28.817,0,0,0,9.024-.373c-3.794-3.636-8-7.086-11.9-10.723C698.586,319.006,699.509,322.829,700.636,326.745Z" transform="translate(-154.8 421.924)"/>
    </g>
    <g id="Group_7" data-name="Group 7" transform="translate(663.755 425.022)">
      <g id="Group_6" data-name="Group 6">
        <path id="Path_36" data-name="Path 36" d="M59.061,144.819a.559.559,0,0,1-.683-.257q-11.329-16.719-23.116-33.236-3.1,20.072-5.705,40.124a.56.56,0,0,1-.495.538q-2.321.586-4.64,1.185a.56.56,0,0,1-.692-.234q-20.955-26.5-43.273-52.3c-1.822-2.082-4.646-2.943-8.738-3.838l-.474-1.633Q-14.81,91.118-.794,87.407l.435,1.644c-1.6,1.147-2.172,2.337-1.81,3.689A7.936,7.936,0,0,0-.563,95.417q9.732,11.9,19.194,23.932,3.148-19.071,6.767-38.155c.035-.316.221-.464.537-.54q1.838-.442,3.677-.879a.593.593,0,0,1,.723.24Q42.24,95.386,53.708,110.968q2.937-15,6.168-30A7.969,7.969,0,0,0,60.1,77.86c-.289-1.37-1.338-2.172-3.275-2.474l-.355-1.663Q70.6,70.7,84.793,68.027l.315,1.671c-3.223,2.644-5.342,4.687-6.02,7.367q-8.172,33.076-14.851,66.193a.558.558,0,0,1-.51.522Q61.393,144.295,59.061,144.819Z"/>
        <path id="Path_37" data-name="Path 37" d="M105.852,135.323l-.3-1.673c2.785-1.724,4.357-4.538,3.819-7.592l-9.222-52.195c-.538-3.052-3.086-5.143-6.477-5.749l-.3-1.673Q107.409,63.9,121.5,61.683l.263,1.679c-3,1.687-4.717,4.5-4.221,7.559q4.229,26.163,8.458,52.324c.5,3.061,2.9,5.2,6.1,5.914l.264,1.68Q119.088,132.924,105.852,135.323Z"/>
        <path id="Path_38" data-name="Path 38" d="M143.083,129.207l-.248-1.682c2.836-1.631,4.5-4.392,4.061-7.461q-3.748-26.237-7.5-52.471c-.437-3.069-2.913-5.243-6.277-5.961l-.248-1.682q31.343-4.619,62.846-7.594.917,9.708,1.834,19.415l-1.789.171a7.744,7.744,0,0,0-7.609-3.77q-15.252,1.557-30.473,3.505.813,6.348,1.625,12.7,7.294-.933,14.6-1.776a7.764,7.764,0,0,0,6.552-5.768l1.782-.194q1.313,12.182,2.626,24.361l-1.746.19A7.559,7.559,0,0,0,175.568,97q-7.213.833-14.418,1.755.806,6.3,1.612,12.6,15.527-1.986,31.089-3.552a7.582,7.582,0,0,0,6.516-5.157l1.743-.164,1.806,19.417Q173.432,124.736,143.083,129.207Z"/>
        <path id="Path_39" data-name="Path 39" d="M255.68,118.266a.553.553,0,0,1-.625-.37q-7.686-12.447-15.687-24.789-3.253.2-6.5.411l1.152,17.463c.205,3.093,2.4,5.452,5.5,6.463l.1,1.7q-13.377.824-26.738,1.96l-.144-1.694c2.925-1.454,4.75-4.106,4.5-7.2l-4.26-52.832c-.248-3.09-2.581-5.412-5.89-6.336l-.144-1.694q19.26-1.638,38.556-2.663c18.271-.935,25.377,10.153,25.716,21.522.324,10.4-4.859,17.746-14.341,20.873q5.784,8.748,11.406,17.552c1.425,2.649,5.592,5.709,8.566,7.126q.025.85.049,1.7Q266.288,117.764,255.68,118.266Zm-1.312-47.694c-.215-4.693-3.209-7.467-9.144-7.15q-7.146.387-14.29.857.5,7.635,1.007,15.268,7.053-.465,14.108-.846C252,78.383,254.578,75.171,254.368,70.572Z"/>
        <path id="Path_40" data-name="Path 40" d="M285.589,117.24l-.036-1.7c3.01-1.264,5-3.795,4.948-6.9l-.89-53c-.051-3.1-2.231-5.566-5.472-6.7l-.036-1.7q14.215-.3,28.433-.27,0,.851,0,1.7c-3.218,1.194-5.35,3.7-5.342,6.8l.117,53c.009,3.1,2.044,5.594,5.078,6.8q0,.85,0,1.7Q298.985,116.956,285.589,117.24Z"/>
        <path id="Path_41" data-name="Path 41" d="M386.983,120.589Q367,97.835,345.371,75.812q-.5,16.595-.995,33.188c-.091,3.1,1.864,5.656,4.857,6.96q-.03.849-.059,1.7-13.391-.46-26.788-.608.011-.849.019-1.7c3.049-1.166,5.119-3.632,5.168-6.732q.406-26.5.815-53c.049-3.1-2.051-5.634-5.253-6.87q.009-.849.018-1.7,9.871.108,19.74.377a1.009,1.009,0,0,1,.743.321q17.37,17.892,33.7,36.265.762-13.279,1.523-26.558c.18-3.1-1.812-5.715-4.961-7.084l.09-1.7q14.2.751,28.387,1.836l-.129,1.7c-3.3.952-5.614,3.294-5.835,6.386q-2.244,31.172-4.489,62.343Q389.454,120.756,386.983,120.589Z"/>
        <path id="Path_42" data-name="Path 42" d="M423.32,118.806a37.7,37.7,0,0,1-12.911-14.461,34.4,34.4,0,0,1-3.778-19.188A30.4,30.4,0,0,1,413.58,67.88,36.7,36.7,0,0,1,429.5,56.608a43.426,43.426,0,0,1,20.778-2.486C461.928,55.479,471.2,60.349,478,68.679a8.487,8.487,0,0,0,5.781,3.963,3.522,3.522,0,0,0,1.173.071l.968,1.458q-1.881,1.086-3.755,2.177-6.619,3.13-13.163,6.333c-.209-.028-.3-.141-.377-.353a33.479,33.479,0,0,0-7.986-9.013c-3.021-2.3-7.133-3.715-12.093-4.292a25.993,25.993,0,0,0-11.655,1.114,19.13,19.13,0,0,0-8.6,6.149,19.347,19.347,0,0,0-3.983,10.46,21.949,21.949,0,0,0,1.774,11.631,19.783,19.783,0,0,0,6.9,8.454,23.109,23.109,0,0,0,10.715,3.912c7.33.854,13.068.381,17.272-1.59q.552-4.213,1.106-8.428-4.368-.573-8.738-1.113a8.5,8.5,0,0,0-4.336.479,6.906,6.906,0,0,0-3.113,2.552q-.871-.1-1.744-.2.945-8.145,1.889-16.292a.484.484,0,0,1,.578-.436q16.906,1.968,33.767,4.424a.483.483,0,0,1,.446.57q-1.893,12.963-3.788,25.926c-3.346,3.757-8.151,6.4-14.409,7.976a57.866,57.866,0,0,1-20.664,1.037A40.932,40.932,0,0,1,423.32,118.806Z"/>
        <path id="Path_43" data-name="Path 43" d="M486.141,130.65q.132-.84.262-1.68c3.194-.716,5.6-2.859,6.094-5.92q4.2-26.167,8.4-52.333c.493-3.061-1.228-5.872-4.229-7.555q.13-.84.262-1.68,31.313,4.885,62.41,11.415l-4.008,19.085q-.883-.185-1.766-.369a7.779,7.779,0,0,0-6.177-5.863Q532.309,82.7,517.17,80.043l-2.214,12.608q7.256,1.273,14.5,2.638a7.783,7.783,0,0,0,7.987-3.561l1.765.345-4.719,24.043-1.728-.337a7.579,7.579,0,0,0-5.99-6.239q-7.155-1.349-14.321-2.607l-2.2,12.509q15.442,2.712,30.827,5.845a7.616,7.616,0,0,0,7.78-2.986l1.72.362q-2.017,9.54-4.036,19.079Q516.46,135.379,486.141,130.65Z"/>
        <path id="Path_44" data-name="Path 44" d="M618.943,160.58q-15.084-26.417-31.893-52.434l-7.764,32.281c-.724,3.015.68,5.922,3.364,7.815l-.405,1.652q-13.105-3.214-26.265-6.114l.366-1.66c3.24-.515,5.782-2.5,6.465-5.527q5.817-25.855,11.636-51.711c.682-3.023-.867-5.937-3.768-7.806l.366-1.66q9.7,2.136,19.365,4.434a1.02,1.02,0,0,1,.667.467q13.458,21.094,25.82,42.461l6.93-25.683c.809-2.992-.621-5.97-3.447-7.961l.435-1.644q13.857,3.674,27.647,7.679l-.474,1.633c-3.454.247-6.217,2.06-7.067,5.041q-8.585,30.049-17.17,60.1Q621.348,161.257,618.943,160.58Z"/>
      </g>
    </g>
    <g id="Group_9" data-name="Group 9" transform="translate(544.192 236.857)">
      <g id="Group_8" data-name="Group 8" transform="translate(90.808 62.602)">
        <path id="Path_45" data-name="Path 45" d="M93.252,152.558c-9.225-30.84,8.512-59.867,38.851-67.212,33.343-8.049,59.954,13.177,65.351,41.93,5.611,29.9-10.548,57.879-39.434,64.886C128.24,199.408,101.7,180.836,93.252,152.558ZM171.971,132.4c-5.379-25.055-19.907-44.959-38.283-40.523-18.04,4.4-22.04,28.8-15.337,53.53,6.711,24.772,21.617,44.086,38.05,40.083C172.992,181.476,177.389,157.64,171.971,132.4Z" transform="translate(-90.808 -51.534)" stroke="#000" stroke-width="2"/>
        <path id="Path_46" data-name="Path 46" d="M257.155,174.932q-34.388-39.347-73.028-76.539l12.2,72.253c1.2,7.078,3.477,8.384,9.533,9.873l.244,1.507q-11.467,1.857-22.907,3.949l-.273-1.5c4.781-3.2,6.976-5.128,5.682-12.5q-7.02-39.917-14.042-79.836a12.452,12.452,0,0,0-10.313-9.783l-.275-1.5q15.254-2.791,30.561-5.2,31.9,31.143,60.9,63.822Q252.1,110.2,248.767,80.931c-.777-6.823-3.322-8.388-9.632-9.936l-.183-1.516q12.591-1.523,25.206-2.789l.153,1.519c-5.818,2.89-7.959,4.973-7.227,11.8q5.031,46.9,10.06,93.805Q262.147,174.351,257.155,174.932Z" transform="translate(-52.282 -60.45)" stroke="#000" stroke-width="2"/>
        <path id="Path_47" data-name="Path 47" d="M276.1,171.778c-.034-.508-.066-1.015-.1-1.523,5.888-2.365,9.2-7.277,8.938-12q-2.42-43.517-4.842-87.034-7.549.419-15.091.931c-13.917.965-18.582,6.153-23.053,16.03q-.994.087-1.986.176,1.058-10.595,2.183-21.186,49.324-4.234,98.825-4.564,2.1,10.444,4.123,20.893L343.1,83.5c-5.19-8.965-10.307-14.161-24.416-13.836q-7.552.185-15.1.463,1.6,43.556,3.2,87.11c.179,4.731,3.925,9.319,10,11.13.014.508.029,1.018.043,1.527Q296.45,170.474,276.1,171.778Z" transform="translate(-12.276 -62.602)" stroke="#000" stroke-width="2"/>
        <path id="Path_48" data-name="Path 48" d="M317.418,169.467q.007-.763.012-1.527c6.04-1.936,9.69-6.6,9.77-11.333q.653-40.451,1.3-80.9c.079-4.729-3.7-9.535-10.269-11.572,0-.508.008-1.018.012-1.527q29.373.229,58.722,1.832c33.105,1.809,56.259,25.1,52.828,56.479-3.28,30.109-26.221,52.031-58.665,50.224Q344.293,169.675,317.418,169.467Zm86.588-51.039c1.108-13.845-.945-25.045-6.161-33.692-5.379-8.5-14.526-13.265-27.283-13.9q-9.225-.46-18.457-.783-1.632,46.686-3.267,93.37,8.539.3,17.074.724C387.508,165.243,401.577,147.363,404.006,118.428Z" transform="translate(28.504 -62.599)" stroke="#000" stroke-width="2"/>
        <path id="Path_49" data-name="Path 49" d="M397.485,174.131l.174-1.516c6.222-1.279,10.354-5.526,10.94-10.225l9.928-80.3c.585-4.694-2.671-9.877-8.993-12.6l.176-1.516q42.159,4.854,84.024,12.575-1.188,9.715-2.4,19.429l-1.641-.3a26.753,26.753,0,0,0-5.454-10.3c-2.713-2.963-6.99-4.957-13.139-5.982q-14.21-2.365-28.457-4.4-2.526,17.682-5.053,35.363,10.116,1.447,20.212,3.064c6.62,1.064,10.267-.942,13.546-6.425l1.624.278q-2.019,11.735-4.036,23.47l-1.594-.272c-1.229-6.246-4.015-9.361-10.6-10.418q-10.04-1.61-20.1-3.045-3.615,25.313-7.234,50.627,12.868,1.839,25.7,3.969c11.374,1.905,16.422-.879,24.719-9.287l1.551.29q-3.4,9.537-6.736,19.087Q436.225,178.591,397.485,174.131Z" transform="translate(70.66 -59.775)" stroke="#000" stroke-width="2"/>
        <path id="Path_50" data-name="Path 50" d="M523.266,198.18q-5.855-31.12-13.082-62.252-3.844,2.777-7.654,5.579-4.176,18.071-8.355,36.143c-1.062,4.615,1.377,10.025,6.813,13.369q-.179.742-.356,1.484-19.955-4.79-40.034-8.857l.3-1.5c6.329-.742,10.82-4.618,11.8-9.249q8.362-39.583,16.724-79.163c.982-4.627-1.835-10.072-7.923-13.331l.3-1.5q21.947,4.444,43.768,9.681l-.356,1.485c-6.909.385-11.76,4.132-12.821,8.741l-7.5,32.426q18.785-12.972,38.335-25.351c3.537-2.239,5.508-4.4,6.05-6.472.5-1.919-.174-3.36-1.82-3.787q.192-.74.383-1.478,12.765,3.313,25.477,6.9-.208.735-.415,1.47c-7.249-.615-14.842,1.894-24.948,7.913q-9.008,5.839-17.854,11.8,7.8,34.692,13.9,69.369c.98,4.708,5.367,9.909,9.264,13.271l-.426,1.465Q538.1,202.062,523.266,198.18Z" transform="translate(103.89 -54.015)" stroke="#000" stroke-width="2"/>
      </g>
    </g>
  </g>
</svg>
